<?xml version="1.0" standalone="no"?>
<!DOCTYPE svg PUBLIC "-//W3C//DTD SVG 20010904//EN"
 "http://www.w3.org/TR/2001/REC-SVG-20010904/DTD/svg10.dtd">
<svg version="1.0" xmlns="http://www.w3.org/2000/svg"
 width="570.000000pt" height="484.000000pt" viewBox="0 0 570.000000 484.000000"
 preserveAspectRatio="xMidYMid meet">
<metadata>
Created by potrace 1.15, written by Peter Selinger 2001-2017
</metadata>
<g transform="translate(0.000000,484.000000) scale(0.100000,-0.100000)"
fill="#000000" stroke="none">
<path d="M2665 4833 c-75 -6 -172 -34 -212 -61 -55 -37 -143 -118 -143 -131 0
-21 20 -11 56 29 86 95 198 135 357 128 82 -3 99 -8 155 -38 34 -19 62 -38 62
-42 0 -5 14 -8 30 -8 17 0 30 5 30 13 0 13 -56 54 -105 75 -29 13 -170 44
-183 40 -4 -1 -25 -3 -47 -5z"/>
<path d="M3178 4673 c3 -16 21 -57 40 -93 19 -36 42 -78 50 -95 20 -41 43 -66
53 -59 5 3 6 10 3 16 -5 7 -2 8 5 3 13 -8 11 -52 -4 -90 -7 -19 -7 -19 9 -4
33 30 34 158 1 146 -16 -7 -23 1 -65 78 -37 69 -77 125 -89 125 -5 0 -6 -12
-3 -27z"/>
<path d="M2392 4399 c-10 -34 -10 -45 1 -68 13 -27 13 -30 -19 -55 -19 -15
-37 -38 -40 -51 -8 -33 3 -75 20 -75 12 0 12 6 3 30 -23 61 39 121 103 99 38
-14 178 -6 229 12 30 11 35 10 50 -10 30 -39 73 -61 124 -61 26 0 47 3 47 8 0
4 -17 18 -38 31 -20 13 -54 36 -75 50 l-39 25 -86 -22 c-94 -24 -158 -28 -182
-11 -12 9 -11 10 7 6 13 -3 26 -1 29 4 3 5 -5 9 -18 9 -35 1 -108 37 -108 55
0 19 3 19 50 -5 42 -21 160 -29 160 -10 0 6 -23 10 -50 10 -54 0 -127 30 -137
55 -9 24 -17 17 -31 -26z"/>
<path d="M3215 4294 c30 -71 37 -115 45 -259 12 -204 12 -195 0 -195 -5 0 -7
6 -4 14 4 11 -1 13 -28 7 -69 -16 -152 -75 -145 -103 4 -13 -3 -23 -23 -33
-15 -8 -39 -36 -54 -64 -23 -45 -25 -55 -16 -98 20 -97 30 -226 19 -240 -17
-20 -50 -16 -77 10 -19 17 -35 22 -78 21 -59 0 -66 9 -39 56 18 32 18 40 1 40
-14 0 -46 -67 -46 -95 0 -19 68 -48 96 -41 12 3 35 -1 50 -9 36 -19 83 -19
107 0 17 12 18 23 11 107 -4 51 -13 118 -20 148 -11 45 -10 57 1 69 11 11 16
10 33 -7 27 -27 41 -30 81 -16 26 9 36 18 35 33 0 18 5 21 43 21 28 0 43 4 43
13 0 7 9 20 19 29 26 22 37 130 22 206 -6 31 -10 111 -9 177 3 111 1 124 -22
170 -14 27 -31 51 -39 53 -10 4 -12 0 -6 -14z m47 -517 c-1 -15 -11 -46 -21
-69 l-18 -42 -19 22 c-23 27 -34 28 -34 3 0 -18 -7 -20 -68 -18 -56 2 -66 4
-53 14 9 7 26 13 39 13 18 0 21 4 17 23 -5 23 22 42 105 73 45 17 56 13 52
-19z"/>
<path d="M2039 4083 c-4 -56 34 -193 52 -193 19 0 90 41 95 55 10 25 -6 36
-29 20 -23 -16 -62 -21 -52 -6 3 5 19 12 35 16 56 12 49 45 -14 73 -22 10 -47
26 -55 35 -17 22 -31 22 -32 0z"/>
<path d="M2244 3965 c-9 -38 7 -52 90 -79 15 -5 16 -9 6 -21 -7 -8 -19 -15
-27 -15 -21 0 -81 49 -88 71 -10 32 -38 3 -33 -33 4 -22 1 -28 -9 -24 -22 9
-80 -20 -98 -47 -18 -27 -16 -57 10 -157 8 -30 16 -67 19 -81 3 -14 23 -46 44
-70 35 -39 39 -50 40 -98 2 -81 40 -193 83 -247 16 -20 29 -42 29 -49 0 -7 18
-28 40 -46 22 -19 57 -48 77 -65 44 -37 88 -57 198 -90 116 -35 177 -39 260
-19 39 9 79 21 91 26 24 12 49 52 75 118 l18 46 1 -37 c0 -21 -10 -58 -22 -82
-19 -40 -20 -51 -11 -103 10 -55 9 -59 -20 -108 -49 -80 -87 -125 -108 -125
-24 0 -24 0 1 -85 12 -39 20 -94 19 -125 -2 -81 -1 -88 11 -70 14 21 12 141
-2 197 -10 36 -10 47 -1 50 16 6 106 119 128 162 13 25 14 39 7 55 -22 45 -23
105 -3 154 28 68 32 97 20 129 -8 21 -7 30 3 38 16 12 38 51 72 123 27 56 86
252 86 283 0 14 7 19 28 19 15 0 23 4 17 8 -5 4 -11 27 -13 52 -4 55 -7 59
-31 29 -13 -16 -22 -48 -26 -94 -4 -38 -13 -81 -20 -95 -7 -14 -27 -68 -45
-120 -18 -52 -47 -120 -66 -151 -19 -31 -46 -89 -61 -130 -14 -41 -37 -85 -50
-99 -24 -24 -31 -25 -137 -25 l-112 0 -54 48 c-30 26 -58 47 -62 47 -20 0 -4
-32 28 -56 26 -20 32 -29 22 -35 -8 -5 -47 10 -98 36 -47 24 -99 50 -116 58
-45 21 -127 120 -174 209 -22 42 -40 79 -40 82 0 3 9 6 19 6 25 0 51 37 51 72
0 25 -3 27 -30 22 -26 -6 -32 -2 -47 26 -10 19 -32 49 -49 69 -71 83 -106 283
-53 311 29 16 42 12 98 -30 29 -22 64 -40 78 -40 26 0 93 58 93 81 0 7 -8 4
-20 -9 -39 -42 -65 -53 -94 -43 -29 12 -35 31 -8 31 40 0 94 22 88 35 -6 17 6
30 57 65 20 14 37 28 37 33 0 10 -2 9 -45 -9 -20 -8 -47 -13 -59 -11 -17 3
-11 8 28 25 56 26 58 40 3 17 -46 -19 -91 -19 -107 0 -18 22 -29 19 -36 -10z"/>
<path d="M2546 3812 c-19 -15 -35 -30 -36 -34 0 -13 24 -9 48 8 12 8 22 11 22
6 0 -5 24 -9 53 -10 31 -1 75 -11 103 -23 l49 -22 -57 -11 c-64 -13 -86 -26
-41 -26 17 0 36 -6 42 -14 24 -29 -123 -26 -152 3 -8 8 -6 11 8 11 10 0 16 3
12 6 -10 10 -97 -28 -97 -42 0 -19 16 -18 24 1 3 8 11 15 17 15 8 0 8 -4 -1
-15 -6 -8 -9 -19 -5 -25 8 -13 35 -13 35 0 0 18 29 10 40 -11 10 -18 18 -20
68 -16 53 5 152 46 153 63 0 4 -12 13 -28 19 l-28 12 35 7 c60 13 70 17 70 30
0 16 -42 36 -75 36 -14 0 -25 5 -25 10 0 6 -11 10 -25 10 -13 0 -28 6 -32 14
-5 8 -35 15 -74 19 -62 6 -70 4 -103 -21z"/>
<path d="M1246 3771 c-42 -47 -45 -120 -10 -233 15 -46 28 -103 31 -128 2 -25
9 -63 14 -85 15 -54 88 -185 104 -185 8 0 14 -21 18 -60 3 -34 13 -73 23 -87
14 -22 15 -28 3 -32 -8 -2 -90 -30 -183 -62 l-170 -58 -52 29 c-34 20 -65 30
-93 30 -49 0 -58 -8 -161 -139 -36 -45 -69 -88 -75 -94 -84 -102 -186 -369
-205 -537 -5 -47 -10 -156 -10 -243 l0 -157 -64 -168 c-71 -186 -90 -267 -106
-457 -6 -71 -16 -148 -21 -169 -16 -59 -4 -101 44 -149 23 -24 48 -46 55 -48
10 -3 10 -10 -2 -34 -19 -40 -32 -125 -18 -125 12 0 28 45 37 109 7 42 8 43
26 25 17 -18 17 -22 3 -72 -16 -53 -12 -81 7 -52 5 8 14 32 20 54 9 33 13 37
25 25 9 -10 12 -26 8 -51 l-6 -36 -92 -16 c-159 -29 -196 -39 -196 -53 0 -18
17 -17 155 12 66 14 198 39 293 56 186 32 202 36 202 50 0 13 -55 10 -130 -6
-109 -24 -117 -22 -174 40 -28 31 -82 77 -121 103 -43 30 -72 57 -76 72 -4 14
-7 21 -8 16 -1 -5 -7 -3 -15 3 -10 9 -11 22 -4 59 11 59 14 79 28 232 12 135
34 257 55 305 8 17 25 62 39 100 15 39 31 79 36 90 11 24 93 216 127 300 29
69 63 174 63 193 0 34 -21 3 -47 -71 -48 -130 -97 -246 -105 -247 -12 0 1 289
17 376 19 101 64 232 114 333 37 72 171 259 234 324 34 36 57 32 143 -24 63
-41 84 -47 84 -26 0 6 30 23 68 35 37 13 81 30 97 38 17 7 63 25 103 39 70 25
75 26 93 9 10 -9 19 -23 19 -29 0 -23 75 -149 110 -184 74 -74 112 -136 79
-128 -15 3 -24 -16 -49 -108 -25 -90 -77 -230 -97 -260 -44 -67 29 -56 184 26
103 55 143 66 143 40 0 -5 -48 -27 -107 -49 -60 -22 -162 -63 -228 -90 -66
-27 -129 -52 -140 -55 -19 -6 -20 -2 -22 121 0 80 -7 147 -16 182 -9 30 -21
73 -27 95 -16 53 -97 215 -120 239 -10 10 -23 16 -28 12 -7 -4 10 -41 43 -94
81 -133 113 -255 120 -458 3 -86 10 -163 15 -169 7 -9 6 -16 -4 -24 -7 -6 -16
-41 -20 -79 -6 -65 -55 -273 -77 -329 -11 -28 -11 -28 -28 26 -18 59 -48 86
-38 35 3 -16 13 -74 22 -129 18 -107 25 -127 43 -133 8 -2 12 16 12 60 0 35 7
88 15 118 47 169 74 284 81 341 3 35 10 70 13 77 7 13 222 -140 424 -301 l87
-69 0 -48 c0 -50 -16 -72 -59 -83 -35 -9 -71 32 -71 81 0 23 6 45 15 52 11 9
13 16 6 23 -7 7 -17 4 -32 -9 -18 -16 -20 -27 -17 -72 6 -70 35 -102 94 -102
56 0 84 24 91 78 3 23 9 42 13 42 3 0 24 -15 46 -33 54 -45 137 -97 157 -97
35 0 24 20 -28 52 -31 18 -88 59 -128 91 -109 88 -346 267 -352 267 -8 0 -218
162 -227 175 -10 13 8 29 57 48 22 9 74 30 115 48 41 17 129 53 195 80 l120
49 32 -33 c17 -17 45 -42 62 -55 24 -18 30 -29 25 -47 -5 -19 4 -34 38 -72 83
-91 118 -140 118 -166 0 -33 77 -117 107 -117 11 0 28 -9 38 -20 16 -18 16
-20 2 -20 -26 0 -20 -17 13 -42 17 -12 30 -30 30 -39 0 -10 9 -24 20 -32 20
-14 18 -16 -42 -57 -66 -46 -119 -88 -196 -157 -51 -47 -87 -62 -105 -44 -18
18 -69 13 -283 -28 -28 -6 -100 -11 -160 -12 -73 -1 -120 -6 -141 -16 -80 -37
-215 -223 -249 -341 -9 -31 -29 -86 -45 -121 -16 -35 -29 -65 -29 -67 0 -11
46 -1 68 15 46 32 71 35 287 36 205 0 285 10 301 36 11 19 -5 22 -46 10 -67
-20 -297 -32 -360 -19 -49 10 -64 9 -120 -10 -36 -11 -66 -19 -68 -18 -1 2 13
49 33 104 45 130 107 232 189 310 63 61 76 69 90 55 11 -11 194 -3 271 12 64
12 174 31 234 39 22 4 20 0 -16 -30 -32 -27 -48 -52 -71 -112 -51 -132 -67
-352 -31 -410 10 -16 11 -24 2 -33 -9 -9 -9 -18 -1 -32 13 -25 1 -33 -72 -47
-30 -6 -69 -18 -87 -26 -17 -8 -38 -14 -47 -14 -9 0 -16 -7 -16 -15 0 -8 2
-15 5 -15 2 0 61 15 131 34 125 34 127 36 178 89 48 50 96 142 96 182 0 15 4
15 189 -16 129 -22 144 -23 137 -10 -4 5 -39 14 -79 21 -114 18 -128 21 -122
30 16 26 176 10 259 -25 14 -6 18 -5 14 6 -2 8 -38 22 -81 33 -71 17 -76 20
-58 33 18 12 32 10 110 -12 102 -28 101 -28 101 -16 0 5 -29 17 -65 26 -36 10
-68 22 -71 27 -11 18 43 6 126 -27 48 -19 103 -37 121 -41 34 -5 34 -5 9 9
-14 8 -68 30 -120 48 -102 35 -106 36 -99 44 8 8 178 -41 259 -74 41 -17 81
-31 88 -31 29 0 -2 20 -71 45 -85 33 -102 45 -62 45 17 0 77 -21 135 -45 58
-25 107 -45 110 -45 20 2 -53 43 -125 71 -76 29 -84 35 -69 46 10 7 39 13 64
13 25 0 55 7 66 15 25 19 55 19 90 0 37 -19 64 -19 64 0 0 9 -9 15 -22 15 -12
0 -63 32 -115 70 -51 39 -111 80 -133 91 -22 12 -42 25 -45 29 -3 5 -36 20
-74 34 -37 15 -89 40 -114 56 -25 15 -48 26 -50 23 -13 -12 10 -37 52 -57 102
-48 189 -107 282 -191 22 -19 39 -39 39 -44 0 -33 -95 -4 -304 92 -55 26 -102
44 -105 41 -9 -9 49 -52 78 -59 20 -5 114 -47 140 -62 2 -1 -4 -14 -13 -29
-10 -14 -15 -28 -12 -31 9 -9 36 18 36 34 0 12 7 14 32 9 17 -3 34 -8 37 -11
8 -9 -32 -33 -74 -45 -35 -10 -54 -8 -149 19 -60 17 -111 29 -114 27 -7 -8 9
-26 24 -26 30 0 12 -18 -33 -33 -27 -9 -73 -25 -103 -36 -30 -11 -75 -20 -100
-21 -51 0 -120 17 -120 29 0 16 -28 20 -54 8 -34 -16 -33 -33 5 -52 23 -13 34
-14 44 -5 8 7 20 10 27 8 18 -6 -25 -28 -87 -44 -76 -21 -79 -20 -71 24 4 20
11 72 16 115 16 138 95 270 150 252 14 -4 42 13 107 67 93 77 147 118 157 118
3 0 6 -16 6 -35 0 -57 26 -33 34 31 3 31 14 62 24 72 32 32 73 54 90 47 15 -5
158 -33 252 -49 27 -5 53 -24 112 -84 42 -42 79 -88 83 -102 4 -14 23 -51 42
-83 19 -32 32 -64 29 -72 -11 -29 -45 -16 -75 29 -17 24 -61 71 -98 105 -59
53 -78 64 -165 92 -54 17 -109 40 -122 50 -15 11 -27 15 -31 10 -9 -16 67 -61
146 -86 49 -15 90 -37 126 -66 29 -24 53 -47 53 -51 0 -4 14 -24 32 -44 27
-30 30 -39 20 -55 -10 -15 -9 -19 1 -19 7 0 17 4 23 10 6 6 22 -6 44 -36 19
-24 52 -66 73 -92 20 -26 43 -59 49 -74 7 -15 29 -34 51 -44 21 -10 52 -34 69
-53 29 -34 64 -60 81 -61 21 -1 -3 37 -99 160 -128 164 -144 189 -144 228 0
17 -4 33 -9 37 -17 10 -73 114 -67 124 9 14 -163 190 -190 196 -13 3 -35 7
-49 10 -14 3 -25 10 -25 15 0 6 -22 40 -50 75 -27 35 -50 67 -50 70 0 9 -51
84 -127 186 -34 48 -63 89 -63 92 0 3 -22 37 -50 74 -83 115 -107 148 -171
240 -127 179 -179 254 -260 373 -32 47 -80 117 -106 155 -27 39 -115 169 -196
290 -81 121 -154 230 -162 241 -7 12 -17 33 -21 48 -3 14 -10 26 -16 26 -12 0
-38 63 -38 95 0 37 20 30 21 -7 0 -18 3 -27 6 -20 10 25 23 11 24 -25 0 -30 2
-34 9 -18 7 19 9 18 19 -8 6 -16 11 -34 11 -40 0 -7 4 -7 9 2 13 21 71 -42 72
-78 0 -14 5 -35 10 -46 7 -16 8 -12 4 14 l-5 34 21 -27 c12 -15 27 -55 34 -89
l13 -62 -31 35 c-17 20 -27 27 -23 16 7 -20 70 -112 259 -379 59 -84 148 -210
198 -282 49 -71 123 -177 164 -235 41 -58 98 -139 127 -180 28 -41 58 -81 65
-88 18 -18 197 -277 266 -384 31 -49 63 -88 72 -88 8 0 15 -4 15 -8 0 -5 14
-8 30 -8 19 0 30 5 30 14 0 8 -6 12 -15 8 -12 -4 -15 3 -15 29 0 23 -9 45 -28
67 -16 18 -52 71 -80 118 -28 47 -62 100 -76 119 -14 19 -26 42 -26 51 0 19
-62 113 -105 160 -30 32 -100 141 -138 216 -9 17 -29 44 -45 62 -16 17 -44 56
-62 86 -19 31 -38 56 -42 56 -4 0 -26 33 -48 74 -22 41 -58 94 -78 117 -21 24
-49 59 -62 78 -19 28 -24 31 -32 17 -6 -11 -1 -28 21 -59 16 -24 36 -49 45
-56 8 -7 18 -29 22 -48 4 -22 9 -30 14 -23 12 19 30 -21 37 -81 7 -61 20 -74
15 -16 -3 41 -3 42 12 17 19 -31 21 -37 35 -80 9 -30 10 -31 6 -5 l-5 30 24
-29 c13 -16 27 -42 30 -58 3 -15 11 -27 18 -26 7 2 18 -13 24 -32 7 -19 13
-31 13 -26 2 18 44 -30 67 -76 13 -25 28 -48 34 -50 16 -5 42 -120 30 -132 -6
-6 -12 -2 -17 10 -4 10 -26 46 -50 79 -24 33 -71 101 -105 150 -34 50 -82 117
-107 150 -25 33 -77 106 -116 162 -38 56 -97 138 -130 184 -33 45 -76 105 -95
133 -19 29 -57 83 -84 121 -38 52 -51 79 -54 114 -2 25 -1 43 2 40 18 -17 92
-141 108 -179 10 -25 17 -34 14 -20 -8 40 91 -77 104 -122 6 -21 22 -50 35
-64 14 -15 25 -33 25 -41 0 -8 5 -11 10 -8 7 4 7 13 0 26 -6 11 -8 23 -5 28 6
10 -52 117 -91 168 -23 31 -24 32 -4 38 12 4 20 15 20 29 0 71 181 403 237
435 24 13 10 25 -20 17 -24 -6 -69 -69 -146 -208 -35 -62 -100 -210 -108 -245
-6 -27 -29 -20 -48 16 -7 15 -32 49 -54 76 -23 28 -55 77 -73 110 -17 33 -56
89 -88 125 -31 36 -67 81 -80 100 -14 19 -43 58 -65 86 -22 28 -48 65 -57 82
-24 45 -38 40 -39 -15 -1 -67 -17 -26 -18 45 -1 56 -8 63 -35 33z m454 -1224
c0 -7 29 -55 65 -107 67 -96 73 -110 54 -110 -7 0 -62 -29 -124 -65 -61 -36
-117 -65 -123 -65 -6 0 1 28 18 68 26 63 55 153 80 250 10 39 30 59 30 29z
m588 -652 c45 -20 105 -39 132 -42 48 -6 51 -8 100 -75 28 -39 50 -72 48 -73
-4 -5 -157 40 -190 56 -16 7 -28 16 -28 22 0 5 8 6 18 1 24 -11 127 -11 125 0
-1 5 -48 26 -104 47 -93 35 -189 83 -189 94 0 8 2 7 88 -30z"/>
<path d="M2130 3391 c-12 -24 -30 -140 -30 -204 0 -73 45 -218 113 -362 116
-247 170 -342 294 -520 98 -140 112 -161 158 -249 74 -141 137 -304 130 -337
-12 -54 19 -32 53 39 18 37 52 104 77 149 69 128 94 194 140 378 59 236 83
432 68 568 -13 111 -20 137 -35 137 -6 0 -8 -16 -4 -42 11 -76 7 -290 -8 -414
-14 -118 -57 -308 -97 -428 -20 -60 -130 -288 -151 -314 -15 -18 -21 -9 -63
93 -55 134 -143 296 -208 382 -105 141 -196 300 -323 565 -86 180 -114 267
-114 353 1 67 14 181 25 208 10 23 -12 22 -25 -2z"/>
<path d="M2157 3303 c-19 -67 -17 -112 8 -188 30 -90 59 -143 107 -196 71 -77
220 -209 282 -249 35 -23 67 -47 69 -53 8 -23 -13 -147 -33 -191 -25 -56 -25
-66 0 -66 11 0 38 -16 60 -36 37 -33 70 -41 70 -15 0 10 -58 63 -86 79 -15 8
-15 16 5 99 28 121 28 161 -1 172 -13 5 -49 31 -80 57 -32 27 -83 69 -113 94
-120 96 -143 125 -222 278 -54 103 -55 109 -50 169 4 58 -5 86 -16 46z"/>
<path d="M3200 3298 c0 -10 46 -120 69 -166 15 -31 45 -109 66 -172 21 -63 58
-169 82 -235 52 -143 223 -494 240 -495 17 0 13 9 -88 217 -48 100 -91 193
-95 208 -4 15 -26 73 -49 129 -40 98 -72 203 -63 211 2 2 80 -20 173 -50 175
-56 215 -64 215 -42 0 7 -30 20 -72 31 -40 10 -127 36 -192 57 -66 22 -124 39
-130 39 -11 0 -57 89 -110 213 -14 31 -30 57 -35 57 -6 0 -11 -1 -11 -2z"/>
<path d="M2953 3224 c-19 -8 -33 -10 -33 -4 0 11 -91 12 -159 2 -47 -7 -70
-32 -29 -32 27 0 51 -13 47 -26 -4 -17 47 -34 104 -34 50 0 58 3 55 17 -2 9
-14 20 -28 23 -37 9 -8 23 45 22 40 -1 42 0 37 23 -2 14 -5 25 -6 24 0 0 -16
-7 -33 -15z"/>
<path d="M3805 3039 c-22 -11 -75 -80 -75 -98 0 -23 21 -9 45 29 21 34 31 40
59 40 45 0 90 -35 241 -187 168 -169 192 -199 221 -280 29 -81 87 -170 117
-179 52 -16 368 -235 447 -309 14 -13 74 -46 133 -73 l108 -50 46 -73 c52 -82
129 -251 139 -303 4 -24 -1 -48 -15 -82 -15 -33 -18 -51 -11 -58 7 -7 15 -6
24 4 15 16 46 101 46 127 0 28 -112 276 -157 346 -26 40 -54 72 -70 79 -125
53 -211 102 -301 172 -137 108 -313 228 -374 256 -33 16 -71 74 -105 160 -34
88 -38 93 -163 223 -246 256 -291 288 -355 256z"/>
<path d="M3763 2834 c3 -11 17 -46 31 -79 65 -158 90 -355 66 -527 -10 -69
-16 -87 -22 -72 -8 18 -17 20 -68 16 -127 -9 -149 1 -325 151 -95 81 -110 83
-198 16 -54 -40 -69 -59 -47 -59 6 0 10 -6 10 -13 0 -17 188 -79 306 -102 44
-8 128 -16 187 -17 73 -1 107 -6 107 -13 0 -43 -506 -579 -638 -676 -45 -33
-51 -44 -27 -53 9 -3 65 44 162 139 80 80 148 143 151 141 2 -2 -1 -13 -7 -24
-16 -30 -13 -78 5 -96 27 -27 72 -20 110 18 28 28 34 41 34 78 0 47 -12 74
-28 65 -6 -4 -6 -21 1 -47 10 -37 9 -42 -18 -70 -62 -65 -109 -17 -65 67 12
24 27 43 33 43 5 0 4 6 -2 14 -10 12 1 27 60 83 63 60 215 243 247 298 15 27
15 14 -2 -119 -28 -210 -33 -271 -25 -280 13 -15 19 -3 32 62 l11 59 46 -25
c25 -14 88 -50 140 -80 86 -50 98 -54 139 -48 24 3 73 22 109 42 54 30 76 37
135 39 40 2 99 -2 132 -10 33 -7 76 -16 95 -19 95 -17 149 -49 241 -143 49
-50 89 -94 89 -96 0 -3 -46 -7 -102 -10 -112 -7 -222 -26 -253 -44 -40 -24 -4
-24 92 -2 68 16 129 24 198 24 55 0 106 4 113 9 10 6 -18 39 -105 125 l-119
116 -90 27 c-151 46 -215 58 -284 52 l-65 -5 28 28 c27 28 29 28 150 27 94 -1
139 -6 192 -22 152 -46 293 -164 415 -347 18 -27 42 -57 53 -66 32 -26 7 -32
-182 -40 -101 -4 -206 -14 -246 -23 -91 -22 -164 -36 -182 -36 -15 0 -25 21
-47 100 -10 35 -34 80 -67 124 -82 108 -180 145 -309 115 -73 -17 -132 -12
-250 20 -60 17 -117 31 -126 31 -8 0 -80 -65 -158 -145 -111 -112 -149 -145
-169 -145 -62 0 -262 -100 -275 -138 -7 -21 17 -13 131 43 124 61 159 70 165
43 2 -13 -3 -18 -17 -18 -29 0 -26 -18 4 -26 42 -10 29 -27 -15 -20 -44 7 -57
-10 -15 -19 14 -3 36 -7 50 -10 50 -10 26 -25 -30 -19 -59 7 -80 -10 -25 -20
17 -3 43 -9 59 -12 16 -3 35 -12 42 -20 14 -17 8 -17 -60 1 -30 8 -58 12 -63
9 -4 -3 -69 7 -143 22 -120 25 -161 27 -142 8 3 -4 28 -11 54 -16 168 -32 440
-82 508 -94 44 -7 100 -18 125 -24 25 -5 68 -14 95 -19 202 -38 353 -76 465
-116 36 -12 74 -26 85 -30 13 -4 7 5 -15 23 -19 17 -53 36 -75 42 -155 41
-322 81 -388 91 -43 6 -74 15 -70 20 4 4 42 9 85 12 65 3 83 9 124 35 45 30
84 39 151 33 12 -1 52 5 88 14 81 18 85 18 85 1 0 -26 46 -27 101 -1 30 13
101 31 159 40 148 23 226 47 215 65 -3 4 -35 0 -72 -9 -39 -10 -81 -14 -98
-11 -30 7 -30 7 -5 13 89 24 143 30 288 33 113 3 174 9 198 19 38 16 38 17 -3
71 -18 24 -20 33 -10 43 10 11 8 12 -8 8 -15 -4 -30 6 -60 44 -148 185 -172
207 -287 275 -119 72 -153 82 -267 83 -46 1 -88 4 -93 7 -16 10 63 83 109 100
40 16 46 15 121 -5 80 -21 182 -28 182 -12 0 5 -30 12 -66 16 -36 4 -97 15
-135 26 -104 29 -142 16 -235 -78 -40 -40 -78 -73 -84 -73 -7 0 -33 -22 -60
-48 -27 -27 -75 -63 -107 -80 l-59 -31 -79 44 c-44 25 -108 59 -142 77 -35 18
-63 35 -63 39 0 3 12 11 27 18 21 9 28 9 34 -1 9 -14 22 -11 285 63 95 27 188
49 209 49 44 0 44 22 -1 30 -33 7 -38 6 -243 -49 -84 -23 -160 -41 -167 -39
-10 2 -5 17 20 54 46 68 126 204 126 213 0 5 9 20 21 35 16 20 17 26 5 26 -8
0 -50 -59 -97 -137 -98 -165 -101 -168 -164 -200 -27 -14 -54 -32 -58 -39 -4
-8 -15 -14 -23 -14 -17 0 -14 18 17 87 11 23 19 48 19 55 0 8 4 18 10 24 10
10 50 120 50 138 0 21 -27 -30 -60 -112 -18 -45 -35 -81 -37 -78 -3 3 5 62 18
133 33 183 31 361 -5 497 -32 120 -76 228 -95 234 -10 3 -12 -1 -8 -14z m-351
-520 c28 -26 74 -63 101 -82 28 -20 45 -38 39 -40 -18 -6 -148 26 -213 52 -32
14 -73 27 -90 31 l-33 7 25 18 c13 10 35 28 48 39 37 32 65 26 123 -25z m545
-678 c95 -34 213 -58 313 -65 132 -9 195 -59 225 -179 15 -57 15 -65 1 -80 -8
-10 -24 -27 -35 -39 -11 -12 -37 -26 -58 -32 -48 -14 -180 -14 -188 -1 -3 6
-15 10 -26 10 -11 0 -31 11 -44 24 -27 27 -37 23 -73 -31 -38 -54 -25 -71 22
-28 28 25 56 33 56 15 0 -5 -4 -10 -9 -10 -5 0 -11 -9 -14 -19 -11 -43 -177
-36 -177 8 0 9 12 43 25 76 28 67 29 75 14 75 -11 0 -51 -85 -63 -133 -4 -19
-17 -33 -39 -42 -36 -15 -53 -7 -68 33 -5 13 -14 20 -20 17 -6 -4 -8 -13 -5
-20 5 -15 -35 -26 -66 -17 -31 8 -39 44 -22 108 8 32 21 71 29 88 18 37 24
119 10 126 -5 3 -12 -6 -15 -20 -6 -32 -79 -128 -102 -136 -13 -4 -18 -15 -18
-38 0 -39 18 -96 31 -96 5 0 9 -6 9 -14 0 -7 9 -25 21 -40 17 -22 18 -26 4
-26 -9 0 -29 7 -44 14 -15 8 -39 13 -52 10 -19 -3 -20 -3 -6 4 17 7 17 9 -7
20 -18 8 -27 21 -31 49 -4 21 -11 51 -16 67 -19 60 -13 71 111 202 66 69 120
130 120 135 0 19 138 9 207 -15z"/>
<path d="M879 1376 c-76 -27 -147 -72 -237 -151 -35 -30 -72 -60 -83 -65 -20
-11 -17 -30 5 -30 6 0 43 26 80 58 177 149 262 191 360 178 82 -12 101 -12
104 -1 3 11 -38 22 -113 29 -37 4 -68 -1 -116 -18z"/>
<path d="M1150 1316 c0 -14 45 -30 70 -24 26 6 18 -18 -14 -42 -46 -34 -100
-117 -131 -203 -15 -40 -40 -108 -56 -152 -16 -44 -57 -134 -91 -199 -55 -107
-59 -120 -45 -131 21 -15 89 -5 172 25 152 55 188 60 475 75 145 8 290 38 298
63 5 16 -17 15 -87 -2 -31 -8 -130 -20 -221 -26 -263 -18 -318 -26 -450 -69
-69 -23 -131 -41 -137 -41 -22 0 -15 25 31 111 25 46 68 146 96 223 28 76 64
165 81 198 37 73 102 139 169 170 56 26 66 44 18 33 -44 -10 -63 -11 -125 -2
-43 6 -53 5 -53 -7z"/>
<path d="M5535 1210 c-188 -12 -326 -30 -435 -56 -250 -61 -423 -133 -510
-211 -53 -48 -65 -71 -56 -109 6 -23 9 -23 66 -17 52 5 60 4 60 -11 0 -21 29
-21 37 1 4 10 -2 23 -18 35 -23 20 -57 20 -101 3 -25 -10 -23 19 3 56 95 135
497 253 929 274 69 3 140 8 158 11 40 6 45 35 5 32 -16 -1 -77 -4 -138 -8z"/>
<path d="M5515 1105 c-175 -34 -366 -80 -399 -97 -13 -7 -15 -12 -7 -18 7 -4
-19 -15 -61 -25 -114 -28 -168 -45 -168 -55 0 -4 57 7 128 25 183 47 404 90
605 116 48 6 87 15 87 20 0 5 -8 9 -17 9 -30 0 -389 -59 -458 -75 -83 -19
-113 -19 -60 1 47 17 472 104 509 104 16 0 26 6 26 15 0 8 -3 15 -7 14 -5 0
-84 -15 -178 -34z"/>
<path d="M5460 965 c-230 -38 -653 -116 -659 -121 -2 -2 -2 -6 1 -9 5 -6 79 6
373 60 77 14 196 34 265 45 69 11 155 25 193 31 37 6 67 15 67 20 0 13 -23 11
-240 -26z"/>
<path d="M4115 943 c-149 -19 -449 -91 -556 -133 -30 -12 -79 -30 -109 -40
-205 -67 -725 -268 -762 -295 -11 -7 -15 -16 -10 -19 9 -5 86 19 202 64 30 12
80 30 110 40 30 10 165 60 300 110 242 90 412 147 500 168 126 31 93 16 -135
-61 -293 -99 -659 -237 -828 -312 -127 -57 -134 -61 -124 -72 4 -4 49 14 100
39 50 26 131 62 179 82 48 19 102 41 120 49 18 8 60 24 93 36 33 11 92 32 130
46 207 76 509 178 564 190 17 3 31 13 31 20 0 18 161 56 264 63 91 5 169 -9
241 -46 l50 -25 -25 -16 c-36 -23 -71 -63 -67 -75 6 -17 37 -19 37 -3 0 20 64
59 84 51 23 -9 20 13 -4 26 -11 6 -20 17 -20 25 0 22 -68 62 -136 79 -57 15
-155 19 -229 9z"/>
<path d="M3970 804 c-172 -45 -595 -188 -950 -322 -143 -53 -340 -152 -340
-169 0 -11 13 -7 48 13 133 78 231 119 572 241 406 145 686 231 830 253 110
17 111 18 40 18 -44 1 -109 -11 -200 -34z"/>
<path d="M2050 792 c0 -4 35 -20 78 -36 67 -25 344 -145 514 -223 32 -15 61
-24 64 -20 17 17 -12 37 -103 71 -54 20 -111 43 -128 51 -82 39 -400 165 -416
165 -5 0 -9 -3 -9 -8z"/>
<path d="M4260 783 c-73 -13 -417 -101 -565 -143 -257 -74 -411 -129 -720
-260 -88 -37 -199 -80 -248 -96 -70 -23 -86 -31 -82 -45 3 -10 -1 -19 -10 -23
-9 -3 -14 -10 -11 -14 3 -5 61 19 128 54 97 49 172 77 358 132 277 83 598 177
690 203 36 9 110 31 165 47 55 17 138 41 185 53 49 14 76 25 63 27 -12 2 -104
-22 -205 -52 -348 -104 -920 -267 -925 -263 -11 11 348 143 561 206 258 77
647 165 679 155 14 -4 18 -2 15 7 -5 15 -37 20 -78 12z"/>
<path d="M4185 665 c-250 -72 -384 -116 -740 -240 -137 -47 -347 -119 -465
-159 -118 -40 -267 -92 -330 -115 l-115 -42 -75 41 c-41 23 -136 71 -210 107
-74 36 -216 105 -315 154 -184 89 -251 116 -228 88 6 -8 26 -21 45 -31 18 -9
170 -84 338 -167 378 -188 380 -189 391 -217 11 -31 41 -31 110 0 30 13 86 33
124 46 39 12 74 25 80 28 12 7 134 50 355 125 91 31 185 63 210 73 198 72 470
163 595 199 83 23 186 54 230 68 44 14 105 32 135 41 123 35 140 41 140 53 0
23 -50 13 -275 -52z"/>
<path d="M1423 613 c-36 -18 -48 -56 -32 -102 8 -24 7 -35 -8 -58 -9 -15 -20
-30 -23 -33 -19 -17 -120 -150 -134 -177 -20 -39 -21 -85 -2 -121 15 -28 67
-72 86 -72 6 0 21 -6 33 -14 38 -25 121 -34 224 -25 103 9 174 30 207 61 11
10 23 18 26 18 3 0 17 18 29 41 34 60 23 94 -65 210 -41 53 -81 103 -89 109
-17 14 -20 76 -5 85 18 11 -20 66 -55 81 -45 19 -151 17 -192 -3z m191 -23
c31 -11 32 -20 9 -49 -23 -28 -124 -46 -156 -28 -32 18 -57 39 -57 48 0 31
145 52 204 29z m16 -130 c0 -17 5 -30 13 -30 21 0 149 -177 159 -222 8 -36 6
-44 -14 -66 -13 -13 -32 -28 -43 -34 -11 -5 -33 -16 -49 -25 -63 -34 -285 -35
-361 -2 -60 26 -96 60 -93 87 3 27 28 44 28 19 0 -38 67 -64 185 -71 44 -3 83
-5 88 -6 4 0 7 -4 7 -10 0 -18 -141 -11 -200 10 -62 21 -74 19 -35 -6 89 -58
370 -39 435 31 21 22 22 29 12 45 -7 11 -12 25 -12 31 0 15 -69 128 -98 160
-21 24 -30 26 -79 23 -59 -3 -90 5 -59 16 16 5 16 7 -3 29 -21 24 -20 41 3 41
8 0 16 -13 19 -29 6 -29 37 -49 57 -36 5 3 10 22 10 41 0 24 5 34 15 34 10 0
15 -10 15 -30z"/>
</g>
</svg>
