 <svg version="1.0" xmlns="http://www.w3.org/2000/svg" width="700.000000pt" height="594.000000pt" viewBox="0 0 700.000000 594.000000" preserveAspectRatio="xMidYMid meet">
<metadata>
Created by potrace 1.12, written by Peter Selinger 2001-2015
</metadata>
<g transform="translate(0.000000,594.000000) scale(0.100000,-0.100000)" fill="#000000" stroke="none">
<path d="M3243 5930 c-39 -4 -76 -11 -82 -14 -6 -4 -36 -13 -66 -21 -30 -8
-72 -27 -94 -43 -59 -43 -171 -148 -171 -161 0 -24 31 -9 75 38 115 123 234
166 434 159 111 -4 119 -6 186 -42 39 -21 77 -45 87 -53 19 -17 73 -14 73 4 0
18 -77 70 -145 97 -51 21 -193 50 -218 45 -4 -1 -39 -5 -79 -9z"></path>
<path d="M3724 5856 c-4 -9 5 -29 20 -47 17 -20 26 -42 26 -66 0 -23 4 -33 13
-31 21 8 19 70 -5 112 -26 44 -45 56 -54 32z"></path>
<path d="M3810 5831 c0 -5 7 -14 15 -21 23 -19 18 -59 -11 -97 -24 -31 -24
-33 -5 -33 41 0 80 111 51 145 -13 16 -50 21 -50 6z"></path>
<path d="M3285 5786 c-64 -13 -114 -35 -134 -60 -11 -13 -11 -16 2 -16 9 0 19
4 22 10 3 5 35 19 71 30 70 21 231 28 276 11 13 -4 40 -11 61 -15 29 -5 37 -4
37 8 0 10 -25 19 -87 30 -101 18 -164 19 -248 2z"></path>
<path d="M3899 5763 c-4 -28 7 -61 42 -125 22 -40 50 -95 63 -123 26 -56 66
-98 73 -77 3 6 9 12 15 12 10 0 6 -56 -7 -97 -12 -36 10 -27 28 12 17 36 22
92 11 132 -4 15 -13 22 -27 20 -16 -2 -32 18 -76 93 -31 53 -66 110 -79 128
-22 30 -41 41 -43 25z"></path>
<path d="M3525 5684 c-69 -36 -122 -90 -141 -143 -30 -85 -48 -126 -63 -144
-10 -12 -11 -21 -4 -28 15 -15 55 56 77 133 21 74 62 120 141 159 52 25 71 30
101 25 27 -6 35 -4 32 6 -8 24 -89 20 -143 -8z"></path>
<path d="M3093 5663 c-4 -10 2 -23 18 -36 21 -17 34 -19 119 -14 98 6 150 19
150 37 0 6 -17 7 -47 2 -27 -4 -81 -7 -121 -7 -59 0 -76 4 -86 18 -16 21 -25
22 -33 0z"></path>
<path d="M2644 5627 c-47 -48 -71 -92 -103 -189 -22 -68 -25 -113 -6 -113 6 0
21 34 35 75 40 118 88 200 127 217 38 15 42 28 14 43 -25 13 -20 16 -67 -33z"></path>
<path d="M3056 5591 c-10 -16 5 -40 39 -61 26 -16 48 -20 116 -19 46 1 94 4
107 7 52 15 21 25 -79 26 -99 1 -108 3 -142 29 -20 15 -38 23 -41 18z"></path>
<path d="M2775 5526 c-63 -30 -165 -138 -165 -175 0 -20 18 -12 26 11 9 30
103 128 134 140 14 6 47 13 73 17 26 3 49 11 50 16 4 20 -68 15 -118 -9z"></path>
<path d="M2990 5496 c0 -23 67 -75 106 -82 55 -10 172 3 202 22 33 22 16 29
-35 15 -91 -26 -222 -1 -240 44 -7 19 -33 19 -33 1z"></path>
<path d="M2805 5459 c-134 -74 -210 -162 -186 -215 5 -12 7 -31 4 -43 -9 -37
15 -22 28 16 8 24 42 68 96 121 46 47 82 86 80 89 -7 7 -101 -72 -140 -118
-41 -48 -60 -45 -34 4 22 41 62 73 152 121 79 43 90 52 78 59 -4 3 -39 -12
-78 -34z"></path>
<path d="M2950 5435 c0 -8 -7 -30 -16 -48 -15 -32 -15 -37 2 -72 15 -33 16
-39 4 -43 -8 -3 -30 -20 -47 -39 -35 -36 -44 -85 -23 -124 14 -25 45 -26 34
-1 -4 9 -9 33 -11 52 -4 29 1 40 26 65 26 24 38 28 69 26 104 -10 271 -4 310
12 38 15 41 15 58 -5 11 -12 37 -34 58 -49 32 -24 49 -29 98 -29 45 0 58 3 58
15 0 8 -7 15 -15 15 -8 0 -15 4 -15 8 0 8 -42 35 -131 83 -28 16 -35 15 -122
-7 -91 -23 -227 -33 -197 -14 19 12 15 15 -50 33 -68 20 -95 39 -87 60 5 14
11 13 49 -8 40 -21 106 -32 176 -27 45 4 20 22 -30 22 -62 0 -150 37 -168 69
-12 24 -30 28 -30 6z"></path>
<path d="M3770 5433 c0 -18 45 -113 53 -113 14 0 1 67 -18 96 -15 23 -35 32
-35 17z"></path>
<path d="M3843 5403 c4 -16 10 -46 14 -68 13 -65 73 -54 73 13 0 21 -2 22 -15
12 -8 -7 -15 -19 -15 -26 0 -8 -4 -14 -10 -14 -5 0 -10 19 -10 43 0 41 -13 67
-33 67 -5 0 -7 -12 -4 -27z"></path>
<path d="M3715 5380 c-4 -6 5 -28 19 -49 14 -20 26 -45 26 -54 0 -9 5 -17 10
-17 6 0 10 11 10 25 0 48 -50 120 -65 95z"></path>
<path d="M4140 5360 c0 -38 -31 -109 -59 -134 -24 -22 -27 -36 -7 -36 7 0 21
11 30 25 39 59 49 12 11 -50 -14 -22 -25 -52 -25 -66 0 -14 -7 -41 -16 -59
-13 -25 -14 -37 -6 -50 8 -13 7 -21 -1 -29 -15 -15 -16 -111 -2 -111 6 0 23
28 38 61 25 53 27 65 17 84 -7 13 -9 29 -4 36 4 7 11 31 15 54 3 22 12 61 20
87 10 38 10 52 0 70 -9 18 -9 31 -2 52 14 35 14 83 1 91 -6 4 -10 -7 -10 -25z"></path>
<path d="M3665 5320 c-4 -6 5 -26 19 -45 14 -18 26 -41 26 -49 0 -9 7 -16 15
-16 20 0 18 17 -8 69 -24 47 -40 60 -52 41z"></path>
<path d="M2491 5291 c-6 -11 -11 -32 -11 -47 0 -39 38 -112 61 -119 30 -10 34
1 11 30 -22 28 -47 118 -38 134 4 5 2 12 -3 16 -6 3 -15 -3 -20 -14z"></path>
<path d="M2761 5280 c-41 -30 -97 -123 -85 -142 13 -21 38 -2 40 30 2 36 29
71 81 103 18 12 31 25 27 30 -8 14 -18 11 -63 -21z"></path>
<path d="M3534 5278 c-6 -10 15 -34 51 -56 6 -4 21 -22 34 -40 24 -35 46 -34
35 1 -9 30 -40 68 -72 89 -32 21 -38 22 -48 6z"></path>
<path d="M3940 5279 c0 -6 9 -26 20 -44 25 -40 39 -139 41 -280 0 -60 4 -137
9 -170 4 -33 3 -64 -1 -69 -6 -6 -9 -3 -9 7 0 30 -58 20 -130 -22 -78 -47 -94
-64 -87 -91 4 -15 -4 -25 -34 -42 -22 -12 -39 -29 -39 -39 0 -10 -5 -21 -10
-24 -6 -4 -17 -23 -25 -42 -13 -30 -13 -48 -5 -97 44 -250 45 -271 18 -290
-32 -22 -42 -20 -99 19 -51 35 -92 45 -104 25 -10 -17 -33 -11 -40 10 -4 13 2
34 15 57 13 23 18 39 11 46 -20 20 -54 -28 -66 -96 -7 -37 -7 -37 39 -58 32
-14 57 -18 77 -14 21 5 44 0 76 -15 44 -21 48 -21 89 -5 24 9 45 20 47 23 6
12 -21 271 -33 324 -15 59 -6 74 34 58 15 -5 25 -14 22 -19 -9 -14 43 -19 82
-8 50 14 61 24 55 48 -5 17 -1 20 18 19 49 -4 79 0 79 12 0 7 12 24 26 39 30
31 30 24 22 434 -3 188 -3 191 -33 250 -27 54 -65 86 -65 54z m66 -623 c5 -14
-30 -124 -45 -139 -6 -6 -18 1 -32 17 -24 27 -39 26 -39 -4 0 -25 -35 -35 -71
-20 -16 7 -40 10 -54 8 -20 -4 -23 -3 -14 8 6 8 25 14 41 14 27 0 30 3 24 24
-5 20 0 28 31 48 46 29 112 57 136 57 10 1 20 -5 23 -13z"></path>
<path d="M2487 5123 c-16 -15 -6 -53 19 -69 22 -15 23 -19 10 -26 -10 -6 -16
-23 -16 -49 0 -49 47 -199 65 -205 17 -7 84 27 109 55 17 18 18 24 6 45 -7 13
-10 28 -7 33 12 20 -13 51 -45 57 -44 8 -100 63 -78 76 12 7 9 13 -13 34 -15
14 -27 32 -27 41 0 16 -12 20 -23 8z m152 -209 c2 -2 -14 -4 -37 -4 -23 0 -42
5 -42 10 0 10 67 4 79 -6z m5 -49 c-10 -8 -30 -15 -43 -15 -43 0 0 25 48 29
10 1 9 -4 -5 -14z"></path>
<path d="M2780 5116 c0 -25 45 -81 80 -99 41 -21 105 -17 129 9 15 15 14 16
-9 9 -69 -22 -126 0 -162 61 -21 35 -38 44 -38 20z"></path>
<path d="M2750 5019 c0 -6 17 -29 39 -50 44 -44 74 -49 137 -23 22 9 50 21 63
26 16 6 21 12 14 19 -6 6 -20 4 -40 -6 -16 -8 -51 -18 -76 -21 -44 -6 -49 -4
-83 30 -37 37 -54 45 -54 25z"></path>
<path d="M2760 4879 c-25 -45 8 -80 104 -113 15 -5 16 -9 6 -21 -7 -8 -22 -15
-35 -15 -22 0 -98 63 -106 88 -3 8 -11 10 -22 7 -12 -5 -17 -18 -17 -47 0 -32
-3 -39 -16 -34 -23 9 -77 -18 -107 -54 -25 -29 -27 -37 -21 -84 3 -28 15 -78
25 -110 11 -33 19 -70 19 -83 0 -28 21 -63 72 -120 36 -40 38 -47 38 -106 0
-85 71 -307 99 -307 4 0 16 -18 26 -40 18 -39 85 -110 104 -110 5 0 29 -18 53
-40 65 -62 121 -84 379 -151 55 -14 88 -11 195 16 126 32 148 53 200 190 7 19
8 18 12 -4 2 -13 -9 -55 -24 -93 -26 -65 -27 -71 -15 -134 l12 -66 -37 -65
c-42 -76 -98 -141 -132 -154 -20 -8 -23 -14 -17 -42 4 -17 14 -52 23 -77 20
-54 21 -233 2 -256 -7 -7 -25 -41 -41 -74 -28 -60 -46 -71 -77 -51 -11 7 -10
21 7 76 33 104 41 335 13 335 -4 0 -8 -49 -9 -108 -2 -116 -21 -219 -53 -282
-11 -21 -20 -42 -20 -45 0 -3 18 -5 40 -5 37 0 41 -3 47 -30 9 -47 33 -33 52
30 10 30 25 69 34 86 47 91 62 237 35 339 -12 44 -12 45 24 82 102 109 159
207 140 246 -21 43 -24 132 -6 173 l17 39 10 -40 c6 -22 11 -119 11 -215 1
-305 -36 -523 -145 -850 -25 -77 -169 -363 -185 -367 -6 -2 -32 47 -59 109
-26 62 -64 145 -85 183 -97 184 -125 232 -145 255 -67 75 -316 482 -351 575
-7 17 -39 84 -72 150 -130 261 -156 355 -141 523 5 59 14 126 20 150 13 48 6
64 -17 40 -21 -21 -32 -78 -40 -214 -7 -105 -5 -116 26 -225 18 -63 45 -141
60 -174 173 -370 256 -522 399 -725 159 -226 211 -315 296 -515 72 -171 78
-190 65 -214 -6 -12 -8 -26 -5 -31 14 -23 34 -6 55 46 13 30 41 83 63 117 53
82 153 302 182 403 104 353 157 772 118 924 -7 25 -14 57 -18 73 -3 15 -12 27
-20 27 -17 0 -18 2 -5 55 6 26 6 51 -1 72 -9 28 -7 37 10 59 12 15 21 32 21
39 0 7 6 18 14 24 21 18 67 118 86 191 10 36 25 85 34 109 9 24 19 68 23 98 6
53 6 54 34 48 27 -6 38 3 22 18 -3 4 -7 33 -8 64 -1 31 -6 58 -12 60 -23 8
-52 -57 -64 -143 -7 -54 -22 -113 -39 -150 -15 -33 -33 -85 -40 -115 -14 -60
-43 -123 -94 -202 -19 -29 -46 -91 -61 -138 -15 -48 -39 -98 -55 -118 -26 -30
-35 -34 -110 -42 -117 -13 -204 2 -250 44 -80 74 -90 81 -100 71 -16 -16 -3
-36 42 -68 35 -24 39 -30 25 -38 -16 -8 -76 18 -262 114 -37 20 -162 152 -176
187 -5 13 -25 50 -44 83 -41 69 -43 85 -12 97 34 13 50 37 51 79 1 31 -2 37
-19 35 -41 -5 -65 7 -79 42 -8 18 -32 53 -53 77 -45 49 -78 133 -91 228 -12
82 -5 127 21 145 34 23 62 18 109 -21 67 -57 102 -71 135 -54 43 22 93 72 93
94 0 17 -7 13 -43 -22 -44 -44 -90 -55 -115 -30 -20 20 -14 25 39 31 57 7 79
20 79 47 0 10 14 29 30 42 73 55 85 67 78 73 -4 4 -23 0 -43 -9 -42 -20 -84
-25 -84 -11 0 6 16 16 37 23 39 13 59 28 50 37 -3 3 -25 -4 -49 -15 -47 -21
-104 -26 -114 -10 -3 5 -15 14 -25 20 -15 8 -21 6 -30 -11z m18 -731 c19 -19
14 -28 -13 -28 -18 0 -25 5 -25 20 0 22 20 26 38 8z"></path>
<path d="M3165 4707 c-12 -7 -36 -24 -55 -39 -26 -21 -32 -30 -23 -39 8 -8 17
-8 33 4 15 11 40 14 93 11 67 -4 181 -36 192 -55 3 -4 -21 -10 -52 -14 -88
-10 -88 -10 -88 -20 0 -6 17 -11 37 -13 20 -2 42 -9 48 -17 9 -10 3 -14 -30
-20 -47 -8 -137 2 -146 17 -3 5 2 15 12 22 10 8 13 15 7 19 -6 4 -16 0 -23 -8
-7 -8 -20 -15 -29 -15 -9 0 -31 -9 -50 -21 -25 -15 -31 -23 -22 -32 8 -8 15
-6 27 11 8 12 20 20 26 16 6 -4 6 -10 -1 -17 -29 -29 9 -59 40 -31 16 15 19
14 41 -11 21 -24 28 -26 88 -24 49 2 72 8 96 25 17 12 46 27 64 31 45 12 48
29 8 46 l-33 14 30 8 c55 12 85 27 85 41 0 16 -50 44 -78 44 -11 0 -33 7 -48
15 -16 8 -37 15 -47 15 -10 0 -20 7 -23 15 -5 11 -22 15 -64 15 -33 0 -62 5
-65 10 -8 13 -24 11 -50 -3z"></path>
<path d="M1533 4635 c-55 -38 -57 -170 -7 -325 19 -60 33 -114 30 -119 -25
-40 91 -313 145 -342 14 -7 19 -21 19 -57 1 -26 8 -65 16 -87 29 -76 30 -73
-18 -85 -23 -6 -101 -32 -173 -56 -71 -25 -153 -52 -181 -61 l-52 -15 -53 36
c-46 31 -62 36 -111 36 -65 0 -85 -13 -140 -92 -18 -25 -55 -73 -83 -105 -91
-108 -104 -127 -154 -223 -60 -115 -83 -171 -126 -315 -42 -137 -55 -259 -55
-505 l0 -187 -79 -209 c-91 -242 -116 -347 -131 -564 -6 -85 -16 -172 -21
-192 -16 -63 -13 -124 7 -156 19 -29 93 -97 114 -104 7 -2 4 -20 -9 -48 -24
-55 -39 -150 -23 -150 18 0 31 32 43 109 7 39 15 71 19 71 4 0 14 -8 23 -18
15 -16 15 -23 2 -66 -8 -27 -15 -61 -15 -76 0 -27 -2 -28 -94 -45 -126 -22
-181 -39 -181 -56 0 -22 35 -22 126 -1 82 19 290 60 539 105 99 18 126 26 128
40 4 20 -38 23 -103 7 -22 -6 -74 -17 -115 -25 l-75 -14 -85 88 c-47 48 -107
100 -135 116 -64 36 -95 64 -95 86 0 9 -9 19 -21 22 -19 5 -20 11 -15 49 3 24
15 133 26 243 19 184 47 354 69 415 5 14 32 81 59 150 28 69 64 160 81 202 16
42 35 85 40 95 18 31 71 155 71 165 0 5 11 33 24 61 14 29 30 75 37 102 6 28
16 58 21 68 5 9 6 22 3 28 -13 19 -32 -10 -55 -84 -12 -39 -30 -85 -39 -102
-10 -16 -33 -69 -52 -117 -19 -49 -38 -88 -43 -88 -11 0 1 341 16 430 27 166
122 411 214 550 24 36 72 100 108 143 35 42 74 92 85 110 44 72 100 70 211 -8
70 -49 85 -54 92 -27 3 11 22 23 49 31 52 14 150 52 164 62 6 4 55 24 110 43
72 26 102 33 111 25 7 -6 30 -45 50 -86 47 -94 107 -188 128 -200 27 -15 96
-104 96 -123 0 -10 -8 -20 -17 -22 -12 -2 -26 -35 -49 -118 -33 -116 -45 -151
-104 -293 -37 -91 -33 -106 27 -90 21 6 47 14 58 18 14 6 17 5 10 -2 -5 -6
-64 -32 -130 -57 -66 -26 -132 -52 -147 -58 -15 -5 -30 -8 -33 -7 -3 2 -7 74
-9 159 -4 140 -8 167 -40 277 -42 149 -148 356 -184 361 -28 4 -28 -13 1 -52
39 -52 104 -178 122 -236 52 -170 57 -197 62 -340 7 -214 9 -239 16 -247 12
-12 7 -41 -8 -47 -11 -4 -15 -21 -15 -58 -1 -105 -102 -499 -116 -453 -2 6
-10 36 -19 68 -10 35 -22 57 -31 57 -17 0 -18 -32 -4 -92 35 -152 40 -181 40
-211 0 -34 21 -64 38 -53 5 3 12 54 15 114 3 68 12 124 22 148 37 85 95 342
95 420 0 16 6 38 13 47 11 15 18 12 74 -31 34 -26 117 -87 185 -137 67 -49
177 -133 243 -186 l121 -96 2 -52 c1 -33 -3 -60 -13 -75 -17 -25 -70 -41 -99
-30 -44 17 -62 126 -26 159 22 20 18 35 -10 35 -67 0 -66 -167 1 -214 27 -19
97 -21 134 -4 28 12 55 64 55 104 0 33 16 30 68 -13 97 -80 177 -126 202 -118
11 3 20 10 20 14 0 7 -71 58 -137 97 -17 10 -76 56 -130 100 -55 45 -167 131
-249 192 -82 61 -211 157 -287 213 -83 62 -137 109 -135 117 3 14 84 53 223
106 69 27 233 96 317 134 l58 26 38 -40 c20 -21 55 -52 75 -67 33 -25 37 -33
32 -57 -5 -24 4 -39 72 -117 109 -124 126 -149 119 -178 -5 -19 5 -35 52 -84
41 -44 65 -61 83 -61 14 0 33 -8 42 -18 21 -23 21 -32 1 -32 -11 0 -14 -5 -10
-16 3 -9 6 -17 6 -20 0 -2 14 -10 30 -19 21 -11 30 -23 30 -40 0 -14 9 -30 20
-37 30 -19 25 -35 -17 -57 -21 -11 -57 -35 -79 -53 -127 -101 -193 -155 -227
-185 -37 -33 -80 -43 -93 -22 -10 17 -113 7 -329 -34 -44 -9 -141 -17 -215
-18 -94 -1 -145 -6 -167 -16 -51 -24 -183 -170 -238 -262 -27 -47 -60 -121
-72 -165 -13 -45 -39 -112 -58 -150 -19 -38 -32 -73 -29 -77 10 -17 52 -9 81
14 43 34 133 61 179 53 92 -17 267 -17 390 -1 124 16 164 27 164 45 0 19 -21
20 -72 6 -80 -24 -347 -38 -431 -23 -61 10 -77 9 -150 -10 -45 -11 -83 -20
-84 -19 -2 1 15 55 37 119 55 161 109 255 205 355 84 89 118 110 141 91 17
-14 292 5 374 25 76 20 180 36 226 36 l39 0 -30 -19 c-42 -26 -57 -46 -92
-126 -45 -103 -68 -228 -68 -370 0 -100 3 -126 18 -149 15 -22 16 -30 6 -42
-9 -11 -9 -21 0 -40 6 -14 11 -26 11 -28 0 -9 -80 -34 -128 -41 -29 -4 -70
-15 -92 -26 -21 -10 -43 -19 -49 -19 -5 0 -11 -5 -13 -12 -3 -9 -21 -7 -68 6
-74 21 -153 15 -213 -15 -50 -26 -63 -60 -42 -112 15 -37 14 -41 -6 -75 -12
-21 -34 -50 -49 -67 -71 -79 -140 -180 -155 -226 -14 -43 -15 -58 -6 -90 13
-43 85 -119 112 -119 10 0 33 -9 51 -19 56 -33 134 -41 270 -30 68 6 137 17
155 25 17 7 35 14 40 14 16 0 107 71 125 98 42 63 39 130 -8 184 -25 29 -75
96 -96 128 -9 14 -34 45 -57 68 -23 24 -41 49 -42 55 -3 27 4 63 13 74 6 8 4
22 -7 43 -9 18 -15 33 -13 35 2 2 48 14 103 28 201 50 213 55 271 113 56 56
108 148 120 209 8 42 6 42 163 16 162 -27 241 -35 241 -24 0 9 -66 27 -140 37
-91 13 -110 18 -105 26 13 21 96 22 190 1 53 -12 106 -26 116 -32 24 -13 44
-2 30 15 -10 11 -50 25 -161 54 l-35 9 27 13 c30 14 39 12 180 -32 37 -12 71
-18 75 -15 12 12 -9 24 -85 47 -40 13 -75 27 -79 33 -11 18 62 0 180 -47 122
-47 176 -59 147 -33 -8 8 -64 31 -125 52 -156 54 -158 55 -153 60 14 15 250
-57 390 -119 20 -9 39 -12 42 -7 10 15 -4 22 -149 79 -56 22 -64 32 -28 32 32
0 150 -43 235 -86 58 -30 77 -31 53 -4 -10 11 -22 20 -27 20 -5 0 -28 9 -51
21 -23 11 -67 30 -97 41 -30 11 -59 24 -64 29 -14 13 40 29 98 29 38 0 61 6
79 20 29 23 79 26 96 6 20 -24 70 -30 91 -11 18 16 21 14 64 -45 25 -34 46
-68 46 -74 0 -7 24 -25 54 -39 48 -24 106 -76 106 -96 0 -14 73 -42 83 -32 13
13 0 33 -127 189 -143 177 -176 229 -176 274 0 20 -4 39 -9 42 -19 12 -81 129
-81 153 0 19 -28 54 -113 139 -98 99 -117 114 -145 114 -37 0 -72 15 -72 32 0
5 -12 26 -27 44 -69 84 -81 101 -98 134 -21 40 -113 175 -161 235 -18 22 -45
61 -60 86 -28 44 -70 105 -184 264 -148 205 -444 631 -530 760 -19 29 -53 79
-75 111 -103 150 -281 410 -290 425 -5 9 -23 36 -39 60 -17 24 -45 73 -62 108
-18 35 -37 67 -41 70 -14 11 -43 81 -43 106 0 48 29 21 31 -28 0 -12 3 -16 6
-9 10 24 23 11 23 -23 0 -19 5 -35 10 -35 6 0 10 5 10 11 0 23 20 -4 26 -36 6
-36 18 -45 28 -22 3 8 18 -2 40 -27 26 -28 36 -49 36 -72 0 -38 9 -64 21 -64
5 0 7 12 4 28 l-6 27 23 -27 c23 -27 55 -134 44 -146 -3 -3 -18 5 -32 19 -22
21 -24 21 -18 4 7 -18 61 -104 82 -130 4 -5 42 -59 84 -120 41 -60 89 -130
107 -155 17 -25 39 -56 48 -70 10 -14 43 -59 74 -100 31 -41 101 -143 156
-225 55 -83 107 -156 116 -163 8 -7 35 -43 59 -80 38 -60 129 -188 220 -312
100 -136 317 -446 343 -490 67 -114 99 -153 137 -166 20 -7 46 -10 57 -7 25 6
28 35 4 31 -14 -2 -19 6 -23 40 -4 26 -16 53 -32 70 -15 15 -54 74 -89 132
-34 58 -75 122 -91 143 -16 20 -38 58 -47 85 -19 50 -74 134 -126 192 -45 49
-175 256 -175 278 0 5 -19 32 -43 58 -24 27 -63 78 -87 114 -24 36 -49 70 -56
75 -7 6 -33 48 -58 94 -26 46 -70 112 -99 145 -29 34 -61 73 -70 89 -21 32
-33 34 -42 7 -10 -30 -27 -13 -20 20 3 16 2 31 -4 35 -6 3 -22 30 -36 58 -13
29 -42 75 -63 103 -38 49 -38 51 -18 60 12 5 22 20 24 34 13 104 230 502 288
529 14 6 22 16 19 21 -11 18 -51 11 -72 -12 -52 -58 -193 -312 -234 -423 -12
-33 -28 -69 -35 -80 -8 -11 -14 -28 -14 -38 0 -13 -5 -17 -16 -13 -9 3 -17 6
-20 6 -2 0 -13 18 -24 39 -11 22 -37 60 -59 85 -22 25 -61 83 -86 129 -25 45
-75 116 -110 157 -35 41 -76 93 -92 115 -15 22 -43 57 -61 78 -18 22 -54 70
-79 108 -47 73 -67 83 -69 33 -2 -57 -3 -61 -14 -44 -6 8 -10 38 -9 65 1 85 0
87 -38 60z m127 -191 c0 -6 -6 -17 -14 -23 -20 -17 -35 7 -28 48 l5 34 18 -24
c10 -13 19 -29 19 -35z m126 -362 c18 -15 115 -152 125 -177 2 -5 26 -43 53
-83 27 -40 47 -75 43 -78 -3 -3 -18 3 -34 14 -15 10 -40 27 -55 36 -31 18 -37
36 -13 36 8 0 15 4 15 9 0 11 -54 51 -68 51 -17 0 -26 22 -12 30 8 5 -2 19
-32 43 -23 20 -54 46 -68 57 -25 22 -25 22 13 0 21 -12 41 -20 44 -17 3 4 -7
27 -21 52 -28 47 -25 56 10 27z m263 -164 c30 -46 65 -107 77 -137 18 -44 23
-50 26 -30 3 20 9 15 56 -45 30 -37 60 -88 68 -115 7 -26 25 -58 39 -71 14
-13 25 -30 25 -38 0 -9 7 -13 20 -9 13 3 24 -3 35 -20 9 -14 32 -41 50 -62 19
-20 36 -53 40 -74 5 -26 12 -37 20 -33 22 8 35 -18 41 -83 7 -61 24 -95 24
-47 0 14 4 26 9 26 19 0 41 -45 41 -82 0 -21 5 -38 11 -38 5 0 9 8 7 18 -9 56
45 -10 57 -69 3 -18 11 -26 22 -25 13 1 20 -10 27 -36 6 -25 15 -38 27 -38 21
0 35 -17 69 -87 16 -32 38 -64 49 -71 14 -8 21 -23 21 -42 0 -22 7 -32 27 -42
15 -7 29 -22 31 -33 2 -11 15 -30 28 -43 24 -23 32 -52 15 -52 -5 0 -12 6 -14
13 -3 7 -6 5 -6 -5 -2 -44 -41 -1 -41 46 0 32 -10 56 -22 56 -6 0 -7 -11 -4
-25 11 -43 -9 -28 -57 43 -26 37 -77 111 -114 164 -37 54 -81 117 -98 140 -16
24 -50 70 -75 103 -45 60 -92 126 -156 220 -18 28 -47 68 -63 90 -17 22 -46
63 -65 90 -20 28 -60 84 -91 125 -30 41 -58 82 -62 90 -4 8 -34 53 -68 100
-33 47 -65 92 -70 100 -11 18 -24 110 -16 110 4 0 31 -37 60 -82z m-53 -199
c3 -5 14 -9 24 -9 20 0 78 -75 67 -87 -4 -3 -44 8 -89 25 -46 17 -92 33 -103
36 -26 8 -74 45 -58 46 6 0 40 -13 75 -30 96 -45 118 -37 51 19 l-38 31 33
-11 c17 -6 35 -15 38 -20z m-12 -123 c48 -20 49 -20 41 4 -6 18 -4 19 19 10
55 -20 85 -41 106 -70 12 -17 20 -33 17 -36 -12 -12 -307 110 -307 128 0 7 67
-12 124 -36z m130 -107 c92 -31 125 -49 92 -49 -15 0 -75 23 -181 70 -44 19 3
8 89 -21z m-112 -18 c13 -5 61 -21 108 -36 93 -30 145 -54 137 -62 -11 -10
-287 88 -287 102 0 8 16 6 42 -4z m235 -147 c75 -24 114 -47 101 -59 -4 -5
-120 37 -228 81 l-35 15 40 -6 c22 -3 77 -17 122 -31z m56 -170 c74 -12 100
-14 111 -5 11 9 19 6 36 -19 12 -17 20 -34 17 -37 -4 -3 -25 2 -47 11 -22 9
-82 23 -132 32 -93 16 -138 29 -138 40 0 3 12 3 28 0 15 -3 71 -12 125 -22z
m-198 -48 c8 -19 44 -76 80 -126 64 -91 77 -120 53 -120 -6 0 -61 -29 -122
-64 -165 -95 -176 -100 -176 -81 0 9 11 40 24 68 28 59 81 227 97 305 6 28 15
52 20 52 6 0 16 -15 24 -34z m328 -53 c15 -7 27 -16 27 -19 0 -7 -10 -4 -90
25 l-55 20 45 -6 c25 -3 57 -12 73 -20z m41 -64 c65 -18 109 -37 56 -25 -14 3
-61 11 -105 16 -152 20 -165 23 -170 31 -9 13 146 -2 219 -22z m-26 -54 c154
-31 162 -34 162 -47 0 -6 -11 -8 -27 -5 -186 39 -230 50 -252 62 -35 19 -29
19 117 -10z m81 -60 c84 -18 126 -37 135 -61 4 -9 5 -18 3 -20 -2 -2 -32 10
-68 27 -35 17 -82 34 -103 38 -22 3 -41 12 -44 19 -5 15 -12 15 77 -3z m-242
-71 c2 -6 -13 -18 -34 -27 -53 -23 -224 -87 -231 -87 -12 0 39 32 130 80 89
48 127 57 135 34z m338 -36 c91 -36 145 -73 145 -99 0 -6 -28 5 -63 25 -35 19
-88 44 -118 56 -31 11 -78 31 -105 45 l-49 25 45 -6 c25 -4 90 -24 145 -46z
m-65 -103 c42 -25 109 -54 210 -91 84 -31 105 -43 93 -55 -12 -12 -118 18
-172 47 -119 65 -195 111 -199 122 -5 15 19 7 68 -23z m70 -100 c36 -19 59
-34 52 -35 -14 0 -132 58 -132 65 0 10 16 4 80 -30z m130 -50 c16 -9 51 -18
77 -22 27 -3 54 -10 61 -16 21 -17 13 -37 -15 -38 -21 -1 -19 -3 11 -8 39 -6
64 -31 31 -31 -50 0 -205 53 -205 70 0 10 35 1 70 -17 29 -15 50 -17 50 -4 0
5 -12 12 -27 16 -26 6 -113 53 -113 61 0 9 33 3 60 -11z m270 -10 c0 -18 12
-19 28 -3 9 9 12 6 12 -14 0 -38 10 -57 26 -51 10 4 14 -4 14 -31 0 -20 -4
-36 -8 -36 -9 0 -102 130 -102 143 0 4 7 7 15 7 8 0 15 -7 15 -15z m-365 -26
c28 -16 57 -32 65 -35 8 -4 40 -18 70 -32 31 -14 80 -28 112 -30 67 -5 94 -26
63 -48 -19 -14 -11 -19 22 -15 13 2 28 -17 20 -26 -3 -2 -40 3 -82 12 -63 14
-78 21 -85 41 -5 13 -14 24 -21 24 -14 0 -210 108 -229 126 -26 25 10 16 65
-17z m93 -129 c45 -26 181 -72 231 -78 49 -6 58 -11 78 -42 12 -19 29 -42 36
-50 27 -30 59 -81 54 -86 -3 -3 -40 6 -82 20 -43 14 -83 26 -91 26 -20 0 -84
32 -84 43 0 4 10 5 23 1 12 -4 51 -8 87 -8 98 -1 85 19 -40 64 -143 50 -282
120 -242 120 7 0 20 -4 30 -10z m392 -25 c0 -8 -4 -15 -10 -15 -5 0 -10 7 -10
15 0 8 5 15 10 15 6 0 10 -7 10 -15z m40 -59 c0 -8 7 -19 15 -26 17 -14 20
-30 6 -30 -12 0 -51 62 -45 72 7 11 24 0 24 -16z m80 -127 c0 -5 -4 -9 -10 -9
-5 0 -10 7 -10 16 0 8 5 12 10 9 6 -3 10 -10 10 -16z m-246 -44 c57 -11 167
-53 188 -72 10 -9 18 -22 18 -30 0 -11 -7 -10 -37 3 -21 9 -65 28 -98 41 -107
44 -165 73 -165 84 0 5 12 3 28 -5 15 -8 45 -18 66 -21z m45 -135 c20 -5 88
-18 151 -30 182 -33 176 -30 271 -127 66 -67 91 -102 109 -146 12 -31 35 -75
51 -97 35 -48 36 -65 7 -81 -20 -11 -25 -8 -52 27 -60 78 -212 219 -252 232
-22 7 -79 26 -128 42 -48 16 -99 38 -111 50 -13 12 -29 19 -35 15 -31 -19 88
-91 197 -118 47 -12 76 -28 126 -69 35 -29 72 -67 82 -85 10 -18 28 -42 41
-54 19 -18 21 -25 12 -45 -14 -31 -3 -42 20 -21 18 16 21 14 65 -41 26 -31 47
-60 47 -64 0 -5 -12 -8 -27 -8 -20 0 -70 32 -168 105 -77 58 -145 105 -152
105 -7 0 -28 11 -48 24 -20 14 -53 30 -73 37 -55 18 -154 68 -180 92 -16 15
-25 18 -33 10 -18 -18 5 -47 58 -72 129 -61 251 -141 337 -221 60 -56 65 -65
52 -78 -14 -14 -22 -13 -78 3 -35 10 -74 24 -88 30 -14 7 -72 35 -130 63 -186
89 -190 91 -196 80 -8 -13 40 -52 91 -73 96 -40 175 -79 175 -87 0 -5 -7 -20
-16 -34 -9 -13 -14 -27 -12 -30 11 -10 39 10 44 33 6 22 10 24 43 18 69 -13
62 -27 -30 -59 -60 -21 -69 -21 -209 19 -68 19 -127 32 -132 29 -13 -8 1 -24
30 -36 l27 -10 -40 -15 c-163 -60 -241 -83 -283 -83 -62 0 -123 17 -145 41
-10 10 -22 19 -28 19 -21 0 -69 -31 -69 -45 0 -29 90 -59 105 -35 8 13 25 13
25 0 0 -5 -12 -16 -27 -23 -34 -17 -161 -42 -170 -33 -4 3 -1 35 5 70 7 35 12
78 12 96 0 42 35 162 66 221 30 60 90 109 125 102 20 -4 39 7 89 49 111 93
225 176 233 171 5 -3 6 -20 3 -38 -4 -20 -2 -36 4 -40 22 -13 38 17 44 84 6
59 11 72 34 89 77 60 72 58 131 42z m400 -554 c26 -31 -14 -17 -45 15 l-29 31
31 -15 c17 -9 36 -23 43 -31z m310 -101 c70 -97 79 -115 63 -115 -10 0 -162
221 -162 235 0 15 23 -13 99 -120z m-1287 -231 c-5 -28 -41 -96 -65 -122 l-21
-22 -38 37 c-22 22 -38 47 -38 60 0 13 1 23 3 23 1 0 34 11 72 24 79 27 91 27
87 0z m-1880 -314 c-7 -40 -11 -45 -36 -48 -24 -3 -28 -1 -21 15 6 16 19 54
31 92 4 13 7 13 19 0 11 -11 13 -26 7 -59z m68 -20 c0 -5 -7 -10 -16 -10 -8 0
-12 5 -9 10 3 6 10 10 16 10 5 0 9 -4 9 -10z m1304 -15 c66 -28 39 -70 -60
-95 -59 -15 -73 -15 -96 -4 -15 8 -34 14 -42 14 -16 0 -36 29 -36 53 0 38 166
60 234 32z m24 -163 c2 -18 9 -32 16 -32 13 0 162 -184 183 -225 19 -37 24
-93 11 -116 -31 -51 -185 -120 -263 -118 l-20 0 20 9 c11 5 52 18 92 30 40 11
86 32 103 46 30 26 39 57 20 69 -5 3 -10 19 -10 35 0 16 -4 32 -10 35 -5 3
-29 38 -52 78 -65 112 -71 116 -162 112 -45 -3 -76 0 -76 5 0 6 7 10 15 10 20
0 19 10 -6 36 -13 14 -19 30 -15 39 9 24 29 13 38 -22 10 -39 50 -59 73 -36
11 10 14 24 10 40 -3 13 -3 28 1 34 11 19 29 3 32 -29z m-241 -38 c8 -21 -19
-46 -40 -38 -20 7 -23 40 -4 47 23 10 38 7 44 -9z m52 -100 c1 -1 -11 -46 -29
-98 -17 -53 -29 -104 -25 -115 9 -30 -10 -33 -54 -10 -27 13 -41 28 -41 40 0
19 70 160 92 187 9 10 43 8 57 -4z m101 -24 c0 -16 5 -32 10 -35 6 -3 10 -17
10 -31 0 -13 4 -24 9 -24 11 0 21 -49 14 -67 -3 -8 -22 -13 -49 -13 -38 0 -44
3 -44 21 0 24 19 158 25 177 8 22 25 3 25 -28z m-346 -189 c21 -39 60 -52 206
-65 69 -6 125 -15 125 -21 0 -20 -145 -17 -216 5 -84 25 -101 25 -70 0 15 -13
18 -20 9 -20 -23 0 -98 75 -98 97 0 42 24 44 44 4z m256 -35 c-6 -8 -18 -12
-27 -9 -12 5 -12 7 -1 14 7 5 19 9 27 9 11 0 11 -3 1 -14z m20 -91 c78 -5 76
-5 60 -15 -18 -10 -169 3 -215 19 -30 10 -22 10 155 -4z"></path>
<path d="M2870 2710 c0 -11 5 -20 10 -20 6 0 10 9 10 20 0 11 -4 20 -10 20 -5
0 -10 -9 -10 -20z"></path>
<path d="M2807 1662 c-9 -10 -16 -34 -16 -57 0 -106 4 -135 16 -135 15 0 21
24 26 110 2 36 6 71 8 79 6 21 -16 24 -34 3z"></path>
<path d="M3311 1646 c-8 -10 -9 -16 -1 -21 13 -8 30 3 30 21 0 18 -14 18 -29
0z"></path>
<path d="M2756 1451 c-13 -21 34 -94 50 -78 9 8 -21 80 -34 85 -6 2 -13 -1
-16 -7z"></path>
<path d="M3260 1435 c-18 -19 -21 -28 -12 -37 15 -15 52 16 52 44 0 25 -12 23
-40 -7z"></path>
<path d="M1850 721 c-64 -9 -76 -18 -54 -42 17 -19 83 -26 132 -13 31 9 29 42
-4 54 -14 6 -26 9 -27 9 -1 -1 -22 -5 -47 -8z"></path>
<path d="M1695 240 c-8 -13 3 -30 21 -30 18 0 18 14 0 29 -10 8 -16 9 -21 1z"></path>
<path d="M2619 4645 c-4 -3 -4 -16 -1 -30 3 -21 8 -23 33 -18 24 4 30 1 38
-18 11 -29 6 -39 -19 -39 -13 0 -22 -11 -29 -35 -15 -57 -1 -86 60 -122 30
-18 59 -33 66 -33 12 0 14 93 2 104 -3 4 -14 -3 -24 -14 -33 -36 -76 -19 -74
30 0 14 3 19 6 13 9 -25 48 -14 61 17 20 45 12 79 -28 111 -35 28 -81 45 -91
34z"></path>
<path d="M2780 4579 c0 -14 11 -25 37 -36 33 -13 41 -13 62 -2 30 17 43 46 15
34 -29 -13 -63 -9 -83 9 -23 21 -31 20 -31 -5z"></path>
<path d="M2872 4508 c-19 -19 -25 -21 -42 -10 -32 20 -39 14 -33 -25 10 -67
71 -107 103 -68 13 16 9 18 -26 16 -11 -1 -28 7 -38 18 -18 20 -18 21 10 31
32 12 64 38 64 52 0 14 -15 9 -38 -14z"></path>
<path d="M3353 4426 c-42 -15 -50 -24 -28 -32 18 -7 85 22 85 38 0 10 -17 9
-57 -6z"></path>
<path d="M2987 4354 c-4 -4 -7 -14 -7 -22 0 -23 101 -182 116 -182 19 0 19 1
-31 86 -25 41 -45 79 -45 83 0 14 -26 42 -33 35z"></path>
<path d="M3043 4065 c-14 -37 34 -276 61 -303 14 -14 16 -14 22 3 4 10 2 27
-5 38 -22 34 -41 109 -47 190 -7 77 -18 104 -31 72z"></path>
<path d="M2646 4053 c-28 -98 -12 -198 56 -341 34 -73 53 -97 161 -204 116
-114 246 -228 261 -228 4 0 27 -14 52 -30 l44 -31 0 -62 c0 -43 -9 -88 -30
-147 -16 -47 -30 -90 -30 -96 0 -7 12 -15 26 -18 14 -4 45 -25 69 -47 46 -43
80 -49 80 -14 0 12 -22 37 -58 65 -56 44 -57 46 -51 85 3 22 12 58 20 80 8 22
17 72 20 112 7 71 6 73 -19 82 -14 6 -50 32 -81 60 -30 27 -68 58 -83 68 -15
9 -71 54 -123 99 -113 96 -165 168 -251 343 -38 80 -40 89 -37 160 2 50 -1 76
-9 78 -6 2 -14 -4 -17 -14z"></path>
<path d="M3935 4048 c-4 -9 17 -67 45 -129 63 -138 84 -194 143 -369 81 -241
152 -424 192 -495 22 -39 64 -122 94 -185 29 -63 58 -121 64 -127 12 -16 27
-17 27 -1 0 13 -37 113 -51 138 -40 73 -179 361 -185 385 -4 17 -31 90 -60
163 -51 129 -83 237 -72 247 5 5 54 -8 93 -25 31 -14 349 -110 362 -110 19 0
26 20 13 35 -7 8 -21 15 -31 15 -23 0 -141 34 -315 90 -71 23 -134 44 -140 45
-12 3 -66 112 -120 239 -38 90 -50 107 -59 84z"></path>
<path d="M1895 4020 c3 -5 8 -10 11 -10 2 0 4 5 4 10 0 6 -5 10 -11 10 -5 0
-7 -4 -4 -10z"></path>
<path d="M3410 3958 c-25 -5 -55 -12 -67 -14 -13 -2 -23 -11 -23 -19 0 -11 11
-15 41 -15 33 0 42 -4 46 -20 9 -33 55 -50 133 -50 64 0 70 2 70 20 0 15 -9
22 -31 27 -48 9 -17 27 46 26 55 -1 55 -1 55 29 0 28 -2 30 -27 22 -16 -4 -37
-7 -48 -6 -90 9 -157 9 -195 0z m107 -54 c29 -8 20 -24 -13 -24 -15 0 -24 6
-24 15 0 17 4 18 37 9z"></path>
<path d="M4670 3729 c-34 -14 -96 -107 -80 -123 12 -11 18 -6 63 59 25 35 79
34 138 -3 62 -40 380 -361 428 -433 22 -32 49 -89 61 -126 23 -69 81 -159 122
-188 13 -9 92 -58 177 -111 144 -89 260 -174 371 -270 26 -22 69 -51 96 -63
27 -13 76 -36 109 -51 33 -16 71 -33 85 -38 47 -18 182 -268 242 -446 l19 -58
-27 -65 c-20 -46 -24 -67 -16 -75 6 -6 17 -8 25 -5 18 7 61 122 61 162 -1 30
-74 213 -135 337 -58 116 -124 198 -159 198 -12 0 -34 8 -48 18 -15 10 -62 33
-105 52 -43 18 -97 49 -120 70 -23 20 -62 50 -87 67 -25 17 -71 54 -103 82
-32 28 -73 59 -90 68 -18 9 -86 51 -151 95 -66 43 -123 78 -127 78 -13 0 -76
95 -89 136 -39 119 -66 158 -209 309 -297 313 -361 359 -451 324z"></path>
<path d="M3500 3490 c-48 -21 -89 -30 -158 -35 -96 -8 -112 -14 -87 -35 12
-10 35 -8 112 8 54 12 109 24 122 28 41 12 15 -13 -53 -51 -35 -19 -73 -35
-85 -35 -20 0 -40 -25 -28 -36 9 -10 125 43 182 81 67 46 99 80 90 94 -9 16
-22 13 -95 -19z"></path>
<path d="M4617 3494 c-3 -3 8 -35 23 -70 40 -88 87 -246 100 -329 13 -95 13
-261 -2 -362 -11 -77 -19 -96 -32 -74 -3 4 -55 9 -116 10 -143 2 -161 11 -369
191 -81 69 -86 72 -126 68 -29 -4 -58 -18 -93 -44 -28 -21 -61 -46 -73 -54
l-22 -16 24 -26 c31 -33 218 -99 361 -127 57 -11 164 -23 238 -26 74 -4 138
-10 142 -14 4 -3 -30 -56 -75 -116 -87 -117 -574 -613 -695 -708 -56 -44 -62
-52 -49 -65 14 -13 21 -9 67 29 29 24 112 104 184 177 72 72 135 132 139 132
4 0 1 -13 -8 -30 -34 -67 -6 -140 56 -140 40 0 103 41 118 78 7 16 11 53 9 83
-2 43 -7 55 -21 57 -17 3 -18 -2 -11 -57 6 -58 5 -61 -24 -91 -35 -35 -76 -40
-92 -11 -17 32 -12 54 24 108 20 30 30 56 26 63 -5 8 22 43 77 99 106 106 165
174 237 271 30 41 62 84 71 95 16 19 16 19 10 -10 -12 -59 -54 -414 -56 -472
-1 -13 -7 -23 -16 -23 -8 0 -95 -81 -192 -180 -157 -158 -182 -180 -210 -180
-80 0 -337 -131 -328 -168 4 -23 13 -20 162 54 141 70 190 83 190 49 0 -13 -8
-21 -23 -23 -19 -3 -21 -6 -11 -18 6 -8 20 -14 30 -14 11 0 19 -7 19 -16 0
-16 -13 -16 -72 2 -12 3 -18 0 -18 -9 0 -17 21 -27 59 -27 15 0 36 -6 47 -14
17 -13 17 -15 2 -21 -9 -4 -25 -2 -37 4 -24 14 -78 14 -86 2 -7 -13 27 -31 58
-31 29 0 93 -25 102 -40 8 -13 7 -13 -73 4 -37 7 -78 14 -92 14 -14 0 -92 14
-174 31 -101 21 -153 28 -160 21 -5 -5 -7 -13 -3 -16 7 -7 135 -34 307 -65
165 -30 461 -84 535 -99 22 -4 60 -12 85 -19 25 -6 97 -20 160 -32 202 -37
406 -93 507 -140 79 -35 87 -18 15 29 -45 29 -138 59 -307 97 -33 8 -85 21
-115 29 -30 8 -92 20 -137 27 -46 7 -83 16 -83 19 0 4 44 11 98 14 93 7 102
10 157 47 56 38 93 47 170 41 30 -2 168 19 186 29 12 6 24 1 43 -16 34 -31 52
-31 118 -1 74 33 79 35 192 51 126 18 268 56 274 73 5 16 -33 16 -94 -3 -56
-17 -120 -20 -129 -5 -3 5 4 12 17 14 13 3 46 10 73 16 28 6 144 14 260 17
172 5 218 9 252 24 24 10 43 22 43 27 0 5 -16 26 -35 48 -26 28 -34 45 -30 61
4 16 1 21 -8 17 -15 -5 -61 43 -185 193 -89 107 -139 148 -287 230 -106 58
-162 76 -209 67 -38 -7 -83 3 -70 16 5 4 55 18 112 30 56 13 102 26 102 30 0
16 -59 18 -135 3 -94 -17 -115 -27 -115 -53 0 -17 -7 -20 -40 -20 -22 0 -40 4
-40 10 0 22 69 85 118 107 66 29 65 29 195 -4 73 -18 104 -30 97 -37 -18 -18
-11 -46 14 -56 13 -5 39 -22 57 -38 19 -16 54 -40 79 -53 25 -12 57 -31 72
-41 29 -20 54 -23 63 -8 11 17 -13 38 -80 69 -34 16 -91 54 -126 83 l-64 53
39 5 c66 8 54 27 -21 34 -37 4 -113 18 -169 32 -99 26 -102 26 -159 10 -50
-15 -68 -29 -146 -106 -49 -49 -100 -92 -113 -96 -13 -3 -42 -27 -64 -52 -26
-31 -67 -62 -120 -90 l-81 -43 -52 27 c-29 14 -88 48 -131 75 -43 27 -81 49
-85 49 -5 0 -26 11 -48 24 l-39 24 34 15 c20 8 39 11 44 6 16 -14 55 -10 151
16 50 14 140 39 200 55 198 55 220 60 257 60 39 0 57 15 40 32 -16 16 -122 11
-172 -7 -25 -9 -90 -28 -145 -42 -55 -14 -128 -32 -162 -41 -67 -17 -85 -12
-61 15 21 24 150 238 182 302 15 28 31 51 36 51 6 0 10 7 10 15 0 44 -55 -10
-98 -95 -7 -14 -48 -81 -90 -149 -75 -121 -79 -125 -142 -158 -36 -18 -70 -40
-76 -48 -13 -18 -44 -20 -44 -2 0 6 10 32 21 57 29 63 107 261 111 282 1 9 -1
18 -7 20 -5 2 -31 -48 -56 -109 -25 -62 -49 -116 -53 -120 -11 -11 3 100 19
162 27 97 38 271 26 405 -20 226 -121 526 -164 484z m-494 -606 c12 -6 54 -39
92 -72 39 -34 90 -75 114 -91 31 -21 39 -31 28 -33 -31 -6 -165 27 -253 63
-48 19 -95 35 -103 35 -46 1 -41 18 20 64 69 51 71 51 102 34z m1653 -643 c88
-26 191 -77 264 -131 74 -56 192 -188 258 -289 25 -38 57 -80 71 -92 13 -13
22 -25 19 -28 -13 -14 -127 -25 -252 -25 -138 0 -242 -13 -352 -45 -28 -8 -77
-16 -109 -17 -67 -3 -72 2 -100 104 -15 58 -82 166 -137 224 -16 18 -62 47
-100 64 -66 31 -76 32 -147 27 -42 -3 -90 -11 -108 -17 -46 -17 -141 -8 -263
24 -150 40 -141 30 -117 123 11 43 21 79 22 81 1 1 47 -23 101 -54 249 -143
234 -136 291 -130 48 6 104 30 180 77 50 31 182 35 303 8 218 -47 263 -67 345
-146 71 -68 155 -159 155 -167 0 -3 -46 -6 -103 -6 -72 0 -123 -6 -172 -20
-38 -11 -82 -20 -97 -20 -30 0 -78 -19 -78 -31 0 -19 27 -18 127 8 90 22 130
27 240 27 88 1 136 5 144 13 14 14 -20 53 -171 200 -90 87 -100 94 -185 124
-49 17 -108 35 -130 39 -22 4 -67 15 -101 24 -43 12 -84 15 -139 11 -71 -5
-76 -4 -64 12 39 46 66 53 209 48 88 -2 157 -9 196 -20z m-897 -245 c67 -22
132 -40 145 -40 12 0 49 -7 81 -16 36 -10 91 -16 137 -15 93 3 154 -24 215
-93 55 -63 93 -202 60 -223 -7 -4 -18 -20 -24 -34 -18 -41 -75 -62 -185 -67
-75 -4 -105 -1 -130 11 -18 8 -46 19 -62 23 -16 4 -31 15 -33 25 -7 27 -25 24
-54 -8 -43 -48 -62 -84 -50 -96 8 -8 22 -2 50 21 34 28 61 40 61 29 0 -2 -7
-18 -15 -35 -14 -28 -21 -31 -81 -37 -36 -4 -79 -4 -96 1 -53 16 -55 32 -15
127 21 52 32 89 26 93 -17 10 -36 -15 -59 -79 -40 -113 -45 -122 -83 -134 -32
-9 -38 -8 -55 11 -10 11 -22 29 -25 39 -9 24 -25 21 -29 -5 -5 -38 -87 -41
-110 -5 -19 29 11 177 47 233 8 12 15 50 17 85 2 52 0 64 -12 64 -10 0 -16
-12 -18 -38 -2 -21 -9 -40 -17 -43 -7 -3 -27 -27 -45 -53 -18 -26 -46 -55 -63
-64 -29 -17 -30 -19 -24 -73 4 -40 15 -69 42 -109 19 -30 40 -57 45 -60 15 -9
12 -25 -4 -25 -18 0 -45 12 -111 48 -37 20 -51 35 -57 57 -37 153 -38 157 -24
189 8 17 63 81 122 141 60 61 122 129 138 153 l29 42 71 0 c57 0 98 -8 195
-40z m415 -11 c16 -14 2 -20 -63 -25 -42 -3 -70 0 -89 10 -20 11 -23 16 -12
20 44 15 145 12 164 -5z m-769 -348 c-7 -34 -19 -40 -29 -15 -4 10 1 25 10 36
22 23 28 17 19 -21z m1005 -141 c0 -5 -4 -10 -9 -10 -6 0 -13 5 -16 10 -3 6 1
10 9 10 9 0 16 -4 16 -10z m-911 -79 c7 -5 12 -14 9 -21 -2 -7 -10 -4 -22 9
-19 21 -12 28 13 12z m71 5 c0 -3 -4 -8 -10 -11 -5 -3 -10 -1 -10 4 0 6 5 11
10 11 6 0 10 -2 10 -4z m110 -6 c0 -5 -4 -10 -10 -10 -5 0 -10 5 -10 10 0 6 5
10 10 10 6 0 10 -4 10 -10z m-75 -40 c3 -5 1 -10 -4 -10 -6 0 -11 5 -11 10 0
6 2 10 4 10 3 0 8 -4 11 -10z"></path>
<path d="M4733 1995 c-3 -9 -3 -19 1 -22 9 -10 58 16 51 27 -10 16 -45 12 -52
-5z"></path>
<path d="M4810 1981 c0 -13 29 -35 37 -28 7 8 -15 37 -28 37 -5 0 -9 -4 -9 -9z"></path>
<path d="M4887 1913 c-17 -16 -5 -33 23 -33 24 0 33 -6 40 -26 6 -14 16 -24
23 -21 17 6 11 60 -10 74 -18 14 -65 17 -76 6z"></path>
<path d="M4756 1808 c-2 -7 -7 -26 -11 -43 -3 -16 -22 -69 -41 -118 -33 -81
-38 -117 -15 -117 5 0 25 38 44 84 38 91 57 189 38 200 -6 4 -13 1 -15 -6z"></path>
<path d="M5031 1726 c-14 -16 2 -51 28 -61 21 -8 25 1 15 37 -11 36 -26 45
-43 24z"></path>
<path d="M4350 1695 c-10 -12 -10 -18 0 -30 15 -18 30 -11 30 15 0 26 -15 33
-30 15z"></path>
<path d="M3426 3223 c-3 -3 -6 -47 -6 -97 0 -81 -17 -232 -36 -323 -11 -54 14
-39 31 19 21 73 48 304 40 355 -6 42 -16 58 -29 46z"></path>
<path d="M4974 3107 c-2 -7 2 -27 11 -43 8 -16 15 -37 15 -47 0 -23 -52 -198
-86 -291 -70 -188 -79 -230 -46 -224 12 2 19 17 23 53 3 28 15 73 27 100 60
149 112 323 112 378 0 32 -26 87 -41 87 -5 0 -12 -6 -15 -13z"></path>
<path d="M298 2222 c-14 -16 -141 -242 -200 -357 -14 -27 -38 -72 -52 -99 -15
-29 -23 -53 -17 -59 10 -10 31 22 108 173 33 63 79 149 102 190 24 41 54 94
67 117 25 43 19 66 -8 35z"></path>
<path d="M328 2052 c-66 -75 -328 -667 -328 -739 0 -37 27 0 46 63 19 66 35
108 55 146 5 10 9 22 9 27 0 6 30 72 66 148 37 76 74 156 85 178 10 22 36 72
58 112 37 68 42 104 9 65z"></path>
<path d="M6937 1969 c-21 -5 -94 -17 -163 -28 -125 -19 -186 -43 -166 -63 10
-10 176 14 325 49 54 12 67 19 67 34 0 21 -6 21 -63 8z"></path>
<path d="M283 1762 c-23 -59 -67 -168 -98 -242 -91 -218 -161 -428 -147 -442
9 -9 12 -8 15 3 3 8 17 52 32 99 26 80 34 102 65 175 96 231 200 494 200 508
0 4 -6 7 -12 7 -7 0 -32 -49 -55 -108z"></path>
<path d="M6655 1770 c-9 -15 4 -30 27 -30 11 0 48 -7 82 -16 33 -9 72 -17 86
-19 14 -1 49 -8 79 -14 70 -14 71 -14 71 7 0 16 -14 21 -86 32 -47 7 -113 21
-147 31 -69 21 -103 24 -112 9z"></path>
<path d="M1076 1688 c-89 -31 -177 -86 -277 -176 -36 -32 -83 -69 -103 -82
-33 -20 -36 -24 -23 -37 13 -13 19 -12 53 10 22 14 75 57 119 96 95 85 191
145 265 167 53 16 71 16 213 -2 39 -5 47 -3 47 10 0 11 -9 16 -26 16 -14 0
-33 4 -42 9 -9 5 -46 11 -81 13 -52 4 -79 -1 -145 -24z"></path>
<path d="M603 1663 c-15 -6 -17 -33 -3 -33 26 0 7 -72 -62 -235 -56 -133 -72
-230 -39 -230 10 0 18 22 27 70 12 73 31 127 83 237 36 76 50 160 31 183 -13
16 -17 17 -37 8z"></path>
<path d="M315 1619 c-9 -17 -27 -63 -40 -102 -13 -40 -41 -124 -63 -187 -36
-104 -68 -210 -122 -400 -28 -99 -31 -118 -20 -125 12 -7 23 19 43 100 34 135
58 221 67 237 5 9 20 54 34 100 23 78 115 352 131 391 13 30 -14 19 -30 -14z"></path>
<path d="M1406 1622 c-10 -17 22 -34 69 -34 26 -1 45 -6 44 -12 0 -6 -18 -26
-41 -44 -77 -62 -127 -148 -194 -339 -59 -167 -94 -253 -114 -283 -27 -39
-100 -188 -100 -204 0 -27 62 -29 156 -5 49 12 105 30 124 39 87 44 209 61
510 75 185 9 343 37 374 66 19 17 19 19 2 25 -10 4 -45 -1 -78 -10 -70 -19
-192 -32 -438 -46 -182 -10 -283 -30 -435 -84 -97 -35 -155 -43 -155 -23 0 8
20 50 45 93 25 44 54 104 66 134 12 30 27 69 34 85 24 61 54 141 66 180 16 54
86 192 118 234 25 34 152 124 191 136 37 12 22 28 -17 20 -51 -10 -76 -10
-154 -1 -42 5 -69 4 -73 -2z"></path>
<path d="M1201 1553 c-53 -53 -74 -85 -100 -146 -18 -43 -31 -88 -29 -100 6
-41 29 -22 52 43 41 116 108 209 168 232 23 9 19 32 -7 36 -11 3 -41 -20 -84
-65z"></path>
<path d="M982 1508 c-7 -7 -12 -17 -12 -22 0 -18 -122 -269 -158 -325 -19 -29
-50 -71 -70 -93 -27 -30 -32 -42 -23 -51 9 -9 21 -2 53 32 49 54 121 164 137
211 6 19 36 82 66 139 29 58 52 108 49 113 -7 12 -28 10 -42 -4z"></path>
<path d="M6835 1489 c-213 -12 -437 -40 -565 -70 -119 -29 -303 -82 -345 -100
-11 -4 -52 -21 -91 -37 -90 -38 -182 -100 -234 -159 -43 -49 -51 -85 -26 -118
13 -18 18 -18 48 -7 53 19 89 16 95 -9 7 -27 47 -22 51 7 7 46 -56 69 -135 49
-27 -6 -33 -5 -33 9 0 47 131 155 245 203 64 27 244 87 310 102 28 7 66 16 86
21 53 14 458 60 584 66 156 7 175 11 175 34 0 15 -6 19 -22 18 -13 -1 -77 -5
-143 -9z"></path>
<path d="M6915 1385 c-38 -7 -122 -23 -185 -35 -135 -24 -298 -63 -392 -93
-53 -17 -67 -25 -63 -38 4 -13 -3 -18 -32 -23 -21 -4 -81 -19 -133 -33 -90
-24 -126 -40 -116 -50 5 -5 170 32 236 54 84 27 464 96 683 124 66 8 87 15 87
26 0 12 -8 14 -37 10 -21 -4 -112 -18 -203 -31 -91 -14 -225 -37 -299 -51
-145 -28 -183 -28 -74 0 37 9 79 21 93 26 14 4 66 15 115 24 50 9 131 24 180
35 50 10 120 22 158 26 56 6 67 10 67 25 0 11 -3 19 -7 18 -5 0 -39 -7 -78
-14z"></path>
<path d="M277 1248 c-68 -221 -88 -292 -108 -373 -11 -44 -26 -99 -34 -122 -8
-24 -10 -45 -5 -48 17 -10 21 2 68 187 11 42 43 147 70 235 28 87 54 177 57
201 13 80 -11 41 -48 -80z"></path>
<path d="M4490 1281 c0 -9 -21 -10 -75 -5 -82 7 -110 -3 -99 -38 5 -17 1 -18
-59 -12 -59 6 -65 5 -80 -16 -8 -12 -20 -19 -26 -16 -13 9 -81 -3 -81 -14 0
-4 33 -10 73 -12 61 -4 74 -2 85 12 10 14 22 17 52 13 21 -3 51 -2 65 1 23 6
26 11 22 32 l-5 25 73 -6 c51 -5 75 -4 80 4 4 8 22 10 50 6 25 -4 45 -3 49 3
9 15 -1 19 -66 27 -41 5 -58 4 -58 -4z"></path>
<path d="M3380 1273 c0 -5 24 -19 53 -33 28 -14 88 -44 132 -67 81 -42 202
-83 244 -83 33 0 21 22 -25 44 -63 31 -75 37 -146 78 -73 41 -78 43 -78 28 0
-5 18 -22 40 -36 64 -43 39 -39 -52 8 -130 67 -168 80 -168 61z"></path>
<path d="M6881 1215 c-35 -8 -116 -21 -180 -30 -64 -9 -150 -23 -191 -31 -41
-9 -124 -24 -185 -34 -457 -79 -443 -76 -427 -92 12 -12 120 1 242 29 36 8
115 23 175 33 61 10 191 32 290 49 147 25 378 61 392 61 2 0 3 7 3 15 0 19
-32 18 -119 0z"></path>
<path d="M5000 1149 c-225 -36 -416 -80 -565 -132 -192 -67 -374 -132 -505
-180 -80 -30 -201 -76 -270 -101 -142 -53 -214 -83 -318 -133 -48 -23 -77 -32
-85 -25 -7 5 -52 26 -102 46 -49 21 -109 46 -132 57 -24 10 -48 19 -54 19 -12
0 -178 69 -194 81 -12 9 -117 49 -127 49 -5 0 -8 -4 -8 -10 0 -10 72 -50 90
-50 6 0 40 -13 75 -30 35 -16 67 -30 70 -30 3 0 68 -27 145 -60 77 -33 143
-60 147 -60 5 0 24 -8 43 -18 50 -27 100 -21 231 28 166 62 215 80 299 110 41
15 174 64 295 109 386 145 631 222 692 220 21 -1 23 -2 8 -6 -85 -21 -504
-165 -810 -278 -71 -27 -101 -45 -75 -45 17 0 212 68 412 145 36 14 71 25 77
25 6 0 25 6 43 14 18 8 98 35 178 61 80 25 154 50 165 55 11 5 34 12 51 15 18
3 34 14 36 23 4 13 27 23 84 36 43 9 109 24 146 33 87 20 242 13 313 -14 74
-29 125 -54 125 -63 0 -4 -17 -19 -38 -34 -42 -29 -68 -68 -58 -85 12 -18 43
-12 49 8 7 28 67 63 95 56 31 -7 29 18 -3 39 -14 9 -25 23 -25 30 0 27 -71 68
-161 92 -107 28 -177 29 -339 3z"></path>
<path d="M3990 1132 c0 -5 6 -14 13 -20 17 -14 89 -3 84 12 -4 13 -97 21 -97
8z"></path>
<path d="M4863 1063 c-13 -2 -23 -9 -23 -15 0 -6 10 -8 23 -4 12 3 28 6 35 6
6 0 12 5 12 10 0 10 -8 11 -47 3z"></path>
<path d="M299 1039 c-19 -37 -112 -390 -104 -398 14 -13 39 52 75 192 10 40
26 97 35 127 26 86 28 100 17 100 -6 0 -16 -10 -23 -21z"></path>
<path d="M5072 1029 c-46 -4 -114 -17 -150 -28 -37 -11 -96 -27 -132 -36 -62
-14 -518 -165 -665 -220 -38 -14 -92 -33 -120 -42 -27 -8 -70 -23 -95 -33 -25
-10 -94 -37 -155 -59 -128 -46 -176 -66 -305 -129 -132 -64 -175 -91 -162
-104 7 -7 43 8 114 49 56 32 121 66 143 75 22 9 74 30 115 48 41 17 99 39 130
50 30 10 100 35 155 55 55 20 125 45 155 55 30 10 93 33 140 50 47 17 148 52
225 76 77 25 151 50 165 56 27 12 157 47 290 79 47 12 101 25 120 30 19 4 61
11 93 14 31 4 57 11 57 16 0 5 -8 8 -17 8 -10 -1 -55 -5 -101 -10z"></path>
<path d="M2520 972 c0 -11 35 -27 140 -64 47 -16 112 -43 145 -58 90 -43 260
-119 350 -155 44 -18 94 -40 110 -49 38 -20 65 -20 65 -1 0 18 -45 41 -170 88
-86 33 -278 112 -362 151 -29 13 -72 29 -211 82 -42 16 -67 18 -67 6z"></path>
<path d="M350 950 c-12 -23 -49 -175 -57 -234 -8 -60 19 -40 33 25 7 30 22 88
33 129 11 41 21 81 21 88 0 19 -18 14 -30 -8z"></path>
<path d="M5200 955 c-30 -7 -107 -24 -170 -39 -355 -79 -850 -227 -1027 -307
-24 -10 -46 -19 -51 -19 -9 0 -144 -55 -307 -125 -60 -26 -121 -52 -135 -58
-14 -6 -79 -29 -145 -51 -87 -30 -120 -45 -120 -57 0 -9 -6 -24 -14 -33 -31
-38 7 -27 132 38 72 38 156 77 187 88 88 30 207 67 315 98 55 15 147 42 205
59 58 17 139 41 180 52 41 11 78 22 82 25 4 3 49 16 100 30 218 60 294 82 308
88 8 3 47 15 85 25 39 11 117 33 175 49 58 17 125 35 149 42 29 7 40 15 34 21
-10 10 -33 4 -343 -86 -124 -37 -253 -74 -350 -101 -47 -13 -132 -37 -190 -54
-58 -17 -141 -42 -185 -55 -96 -27 -238 -69 -282 -83 -18 -6 -33 -7 -33 -2 0
7 105 50 295 120 28 10 106 37 175 59 69 23 139 46 155 52 61 22 403 112 528
139 49 11 92 22 97 25 15 9 232 46 254 43 13 -2 21 3 21 12 0 20 -54 23 -125
5z"></path>
<path d="M5669 915 c-63 -33 -86 -40 -131 -38 -27 0 -55 6 -63 13 -19 16 -56
10 -185 -30 -58 -18 -139 -41 -180 -51 -84 -22 -182 -51 -345 -103 -115 -37
-136 -44 -515 -176 -284 -99 -692 -238 -740 -252 -38 -11 -233 -83 -265 -98
-11 -5 -46 -17 -78 -26 -55 -17 -59 -17 -85 -1 -34 22 -779 390 -925 457 -70
32 -83 12 -19 -29 27 -17 52 -31 56 -31 14 0 700 -341 778 -387 43 -25 75 -50
72 -55 -9 -15 17 -38 42 -38 13 0 63 16 111 36 49 20 120 48 158 61 39 14 124
44 190 68 196 69 402 140 530 183 66 22 158 55 205 72 47 18 96 34 110 37 14
3 30 9 35 13 6 5 28 11 50 15 22 4 45 11 50 15 23 19 208 77 430 136 50 13
106 30 125 38 19 8 69 24 110 36 41 12 89 26 105 31 138 40 195 52 195 40 0
-19 38 -21 119 -7 87 15 111 27 111 56 0 24 -21 31 -51 15z"></path>
<path d="M410 900 c-17 -32 -49 -194 -40 -204 13 -13 31 31 51 123 11 47 19
89 19 93 0 16 -19 8 -30 -12z"></path>
<path d="M2415 820 c-7 -12 27 -33 90 -56 28 -9 55 -21 60 -25 6 -4 36 -17 68
-29 33 -12 71 -28 85 -36 15 -8 30 -14 33 -14 12 0 344 -163 372 -183 16 -10
31 -17 34 -14 17 17 -20 44 -134 99 -240 114 -449 208 -463 208 -8 0 -77 29
-122 51 -10 5 -20 5 -23 -1z"></path>
<path d="M2240 741 c0 -5 33 -25 73 -44 182 -88 309 -147 313 -147 2 0 37 -15
77 -34 39 -19 119 -57 177 -84 58 -27 122 -57 143 -67 37 -17 55 -16 43 3 -5
9 -107 62 -119 62 -3 0 -52 23 -110 50 -58 28 -108 50 -111 50 -3 0 -77 34
-163 76 -314 152 -323 155 -323 135z"></path>
<path d="M1610 728 c-19 -5 -75 -15 -125 -23 -186 -28 -223 -41 -197 -67 10
-10 36 -8 125 9 61 12 144 28 182 34 80 14 93 22 75 44 -14 17 -12 17 -60 3z"></path>
<path d="M2150 701 c0 -11 35 -33 80 -51 62 -24 496 -227 515 -240 11 -8 193
-105 240 -128 17 -8 40 -24 51 -34 13 -12 24 -15 28 -10 3 6 -9 23 -28 39 -32
26 -337 183 -556 286 -337 159 -330 156 -330 138z"></path>
<path d="M3755 690 c-27 -9 -104 -41 -170 -70 -66 -29 -147 -63 -180 -77 -65
-27 -100 -52 -88 -64 5 -4 62 19 128 51 67 32 177 81 245 109 118 48 162 72
130 70 -8 0 -37 -9 -65 -19z"></path>
</g>
</svg>